<svg width="36" height="37" viewBox="0 0 36 37" fill="none" xmlns="http://www.w3.org/2000/svg">
<rect y="0.5" width="36" height="36" rx="4" fill="#F1F8FE"/>
<path d="M22.1667 15.1673H23.8333C24.7538 15.1673 25.5 15.9135 25.5 16.834V21.834C25.5 22.7545 24.7538 23.5007 23.8333 23.5007H22.1667V26.834L18.8333 23.5007H15.5C15.0398 23.5007 14.6231 23.3141 14.3215 23.0125M14.3215 23.0125L17.1667 20.1673H20.5C21.4205 20.1673 22.1667 19.4211 22.1667 18.5007V13.5007C22.1667 12.5802 21.4205 11.834 20.5 11.834H12.1667C11.2462 11.834 10.5 12.5802 10.5 13.5007V18.5007C10.5 19.4211 11.2462 20.1673 12.1667 20.1673H13.8333V23.5007L14.3215 23.0125Z" stroke="#278DEE" stroke-width="2" stroke-linecap="round" stroke-linejoin="round"/>
</svg>
