<svg width="36" height="37" viewBox="0 0 36 37" fill="none" xmlns="http://www.w3.org/2000/svg">
<rect y="0.5" width="36" height="36" rx="4" fill="#F8E6F5"/>
<path d="M19.4102 16.6554C19.7722 17.0725 20.4038 17.1173 20.8209 16.7553C21.2381 16.3933 21.2828 15.7618 20.9208 15.3446L19.4102 16.6554ZM16.5898 20.3446C16.2278 19.9275 15.5962 19.8827 15.1791 20.2447C14.762 20.6067 14.7172 21.2382 15.0792 21.6554L16.5898 20.3446ZM19 14.3333C19 13.781 18.5523 13.3333 18 13.3333C17.4477 13.3333 17 13.781 17 14.3333H19ZM17 22.6666C17 23.2189 17.4477 23.6667 18 23.6667C18.5523 23.6667 19 23.219 19 22.6667L17 22.6666ZM24.5 18.5C24.5 22.0899 21.5899 25 18 25V27C22.6944 27 26.5 23.1944 26.5 18.5H24.5ZM18 25C14.4101 25 11.5 22.0899 11.5 18.5H9.5C9.5 23.1944 13.3056 27 18 27V25ZM11.5 18.5C11.5 14.9101 14.4101 12 18 12V10C13.3056 10 9.5 13.8056 9.5 18.5H11.5ZM18 12C21.5899 12 24.5 14.9101 24.5 18.5H26.5C26.5 13.8056 22.6944 10 18 10V12ZM18 17.5C17.4795 17.5 17.0536 17.3576 16.7869 17.1798C16.5133 16.9974 16.5 16.8552 16.5 16.8333H14.5C14.5 17.732 15.0463 18.4231 15.6775 18.8439C16.3157 19.2694 17.1398 19.5 18 19.5V17.5ZM16.5 16.8333C16.5 16.8115 16.5133 16.6693 16.7869 16.4869C17.0536 16.3091 17.4795 16.1667 18 16.1667V14.1667C17.1398 14.1667 16.3157 14.3973 15.6775 14.8228C15.0463 15.2436 14.5 15.9347 14.5 16.8333H16.5ZM18 16.1667C18.7187 16.1667 19.2164 16.4319 19.4102 16.6554L20.9208 15.3446C20.2502 14.5717 19.132 14.1667 18 14.1667V16.1667ZM18 19.5C18.5205 19.5 18.9464 19.6424 19.2131 19.8202C19.4867 20.0026 19.5 20.1448 19.5 20.1667H21.5C21.5 19.268 20.9537 18.5769 20.3225 18.1561C19.6843 17.7306 18.8602 17.5 18 17.5V19.5ZM17 14.3333V15.1667H19V14.3333H17ZM17 21.8333L17 22.6666L19 22.6667L19 21.8334L17 21.8333ZM18 20.8333C17.2813 20.8333 16.7836 20.568 16.5898 20.3446L15.0792 21.6554C15.7498 22.4283 16.868 22.8333 18 22.8333L18 20.8333ZM19.5 20.1667C19.5 20.1885 19.4867 20.3307 19.2131 20.5131C18.9464 20.6909 18.5205 20.8333 18 20.8333V22.8333C18.8603 22.8333 19.6843 22.6027 20.3225 22.1772C20.9537 21.7564 21.5 21.0653 21.5 20.1667H19.5ZM17 15.1667L17 21.8333L19 21.8333L19 15.1667L17 15.1667Z" fill="#CC42BE"/>
</svg>
