<svg width="36" height="37" viewBox="0 0 36 37" fill="none" xmlns="http://www.w3.org/2000/svg">
<rect y="0.500107" width="36" height="36" rx="4" fill="#FFF2CC"/>
<path d="M12.9547 12.2791C13.2005 11.7845 12.9988 11.1844 12.5042 10.9386C12.0097 10.6928 11.4095 10.8945 11.1637 11.3891L12.9547 12.2791ZM11.1637 25.6125C11.4095 26.107 12.0097 26.3087 12.5042 26.0629C12.9988 25.8172 13.2005 25.217 12.9547 24.7224L11.1637 25.6125ZM22.9379 24.7224C22.6921 25.217 22.8938 25.8172 23.3883 26.0629C23.8829 26.3087 24.4831 26.107 24.7289 25.6125L22.9379 24.7224ZM24.7289 11.3891C24.4831 10.8945 23.8829 10.6928 23.3883 10.9386C22.8938 11.1844 22.6921 11.7845 22.9379 12.2791L24.7289 11.3891ZM15.5 15.0008C14.9477 15.0008 14.5 15.4485 14.5 16.0008C14.5 16.553 14.9477 17.0008 15.5 17.0008V15.0008ZM17.3394 16.6052L16.3778 16.8799L17.3394 16.6052ZM18.6606 21.2297L17.6991 21.5044L18.6606 21.2297ZM20.5 22.8341C21.0523 22.8341 21.5 22.3864 21.5 21.8341C21.5 21.2818 21.0523 20.8341 20.5 20.8341V22.8341ZM21.3333 17.0008C21.8856 17.0008 22.3333 16.553 22.3333 16.0008C22.3333 15.4485 21.8856 15.0008 21.3333 15.0008V17.0008ZM20.0011 16.5828L20.7604 17.2336L20.0011 16.5828ZM15.9989 21.2521L16.7581 21.9029L15.9989 21.2521ZM14.6667 20.8341C14.1144 20.8341 13.6667 21.2818 13.6667 21.8341C13.6667 22.3864 14.1144 22.8341 14.6667 22.8341V20.8341ZM11.5 18.5008C11.5 16.2639 12.0239 14.1522 12.9547 12.2791L11.1637 11.3891C10.0985 13.5325 9.5 15.9482 9.5 18.5008H11.5ZM12.9547 24.7224C12.0239 22.8493 11.5 20.7376 11.5 18.5008H9.5C9.5 21.0533 10.0985 23.469 11.1637 25.6125L12.9547 24.7224ZM24.3926 18.5008C24.3926 20.7376 23.8687 22.8493 22.9379 24.7224L24.7289 25.6125C25.7941 23.469 26.3926 21.0533 26.3926 18.5008H24.3926ZM22.9379 12.2791C23.8687 14.1522 24.3926 16.2639 24.3926 18.5008H26.3926C26.3926 15.9482 25.7941 13.5325 24.7289 11.3891L22.9379 12.2791ZM15.5 17.0008H16.5381V15.0008H15.5V17.0008ZM16.3778 16.8799L17.6991 21.5044L19.6222 20.955L18.3009 16.3304L16.3778 16.8799ZM19.4619 22.8341H20.5V20.8341H19.4619V22.8341ZM17.6991 21.5044C17.924 22.2915 18.6434 22.8341 19.4619 22.8341V20.8341C19.5363 20.8341 19.6017 20.8834 19.6222 20.955L17.6991 21.5044ZM16.5381 17.0008C16.4637 17.0008 16.3983 16.9514 16.3778 16.8799L18.3009 16.3304C18.076 15.5434 17.3566 15.0008 16.5381 15.0008V17.0008ZM21.3333 15.0008H21.2666V17.0008H21.3333V15.0008ZM19.2419 15.932L15.2396 20.6013L16.7581 21.9029L20.7604 17.2336L19.2419 15.932ZM14.7334 20.8341H14.6667V22.8341H14.7334V20.8341ZM15.2396 20.6013C15.113 20.749 14.9281 20.8341 14.7334 20.8341V22.8341C15.5119 22.8341 16.2515 22.4939 16.7581 21.9029L15.2396 20.6013ZM21.2666 15.0008C20.4881 15.0008 19.7485 15.3409 19.2419 15.932L20.7604 17.2336C20.887 17.0858 21.0719 17.0008 21.2666 17.0008V15.0008Z" fill="#FFD24D"/>
</svg>
