<svg width="37" height="37" viewBox="0 0 37 37" fill="none" xmlns="http://www.w3.org/2000/svg">
<rect x="0.5" y="0.500107" width="36" height="36" rx="4" fill="#F8E6F5"/>
<path d="M19.9102 16.6555C20.2722 17.0726 20.9038 17.1174 21.3209 16.7554C21.7381 16.3935 21.7828 15.7619 21.4208 15.3447L19.9102 16.6555ZM17.0898 20.3447C16.7278 19.9276 16.0962 19.8828 15.6791 20.2448C15.262 20.6068 15.2172 21.2383 15.5792 21.6555L17.0898 20.3447ZM19.5 14.3334C19.5 13.7812 19.0523 13.3334 18.5 13.3334C17.9477 13.3334 17.5 13.7812 17.5 14.3334H19.5ZM17.5 22.6668C17.5 23.219 17.9477 23.6668 18.5 23.6668C19.0523 23.6668 19.5 23.2191 19.5 22.6668L17.5 22.6668ZM25 18.5001C25 22.09 22.0899 25.0001 18.5 25.0001V27.0001C23.1944 27.0001 27 23.1945 27 18.5001H25ZM18.5 25.0001C14.9101 25.0001 12 22.09 12 18.5001H10C10 23.1945 13.8056 27.0001 18.5 27.0001V25.0001ZM12 18.5001C12 14.9103 14.9101 12.0001 18.5 12.0001V10.0001C13.8056 10.0001 10 13.8057 10 18.5001H12ZM18.5 12.0001C22.0899 12.0001 25 14.9103 25 18.5001H27C27 13.8057 23.1944 10.0001 18.5 10.0001V12.0001ZM18.5 17.5001C17.9795 17.5001 17.5536 17.3577 17.2869 17.1799C17.0133 16.9975 17 16.8553 17 16.8334H15C15 17.7321 15.5463 18.4232 16.1775 18.844C16.8157 19.2695 17.6398 19.5001 18.5 19.5001V17.5001ZM17 16.8334C17 16.8116 17.0133 16.6694 17.2869 16.487C17.5536 16.3092 17.9795 16.1668 18.5 16.1668V14.1668C17.6398 14.1668 16.8157 14.3974 16.1775 14.8229C15.5463 15.2437 15 15.9348 15 16.8334H17ZM18.5 16.1668C19.2187 16.1668 19.7164 16.4321 19.9102 16.6555L21.4208 15.3447C20.7502 14.5718 19.632 14.1668 18.5 14.1668V16.1668ZM18.5 19.5001C19.0205 19.5001 19.4464 19.6426 19.7131 19.8203C19.9867 20.0027 20 20.1449 20 20.1668H22C22 19.2681 21.4537 18.577 20.8225 18.1562C20.1843 17.7308 19.3602 17.5001 18.5 17.5001V19.5001ZM17.5 14.3334V15.1668H19.5V14.3334H17.5ZM17.5 21.8334L17.5 22.6668L19.5 22.6668L19.5 21.8335L17.5 21.8334ZM18.5 20.8334C17.7813 20.8334 17.2836 20.5682 17.0898 20.3447L15.5792 21.6555C16.2498 22.4284 17.368 22.8334 18.5 22.8334L18.5 20.8334ZM20 20.1668C20 20.1886 19.9867 20.3308 19.7131 20.5132C19.4464 20.691 19.0205 20.8334 18.5 20.8334V22.8334C19.3603 22.8334 20.1843 22.6028 20.8225 22.1773C21.4537 21.7565 22 21.0654 22 20.1668H20ZM17.5 15.1668L17.5 21.8334L19.5 21.8334L19.5 15.1668L17.5 15.1668Z" fill="#CC42BE"/>
</svg>
