<svg width="20" height="20" viewBox="0 0 20 20" fill="none" xmlns="http://www.w3.org/2000/svg">
<path d="M4.95471 3.77902C5.2005 3.28444 4.99881 2.68425 4.50423 2.43847C4.00965 2.19269 3.40947 2.39437 3.16368 2.88895L4.95471 3.77902ZM3.16368 17.1124C3.40947 17.6069 4.00965 17.8086 4.50423 17.5628C4.99881 17.317 5.2005 16.7169 4.95471 16.2223L3.16368 17.1124ZM14.9379 16.2223C14.6921 16.7169 14.8938 17.317 15.3883 17.5628C15.8829 17.8086 16.4831 17.6069 16.7289 17.1124L14.9379 16.2223ZM16.7289 2.88895C16.4831 2.39437 15.8829 2.19269 15.3883 2.43847C14.8938 2.68425 14.6921 3.28444 14.9379 3.77902L16.7289 2.88895ZM7.5 6.50065C6.94772 6.50065 6.5 6.94837 6.5 7.50065C6.5 8.05294 6.94772 8.50065 7.5 8.50065V6.50065ZM9.33935 8.10505L8.37783 8.37977L9.33935 8.10505ZM10.6606 12.7296L9.69912 13.0043L10.6606 12.7296ZM12.5 14.334C13.0523 14.334 13.5 13.8863 13.5 13.334C13.5 12.7817 13.0523 12.334 12.5 12.334V14.334ZM13.3333 8.50065C13.8856 8.50065 14.3333 8.05294 14.3333 7.50065C14.3333 6.94837 13.8856 6.50065 13.3333 6.50065V8.50065ZM12.0011 8.08267L12.7604 8.73346L12.0011 8.08267ZM7.99887 12.752L8.75813 13.4028L7.99887 12.752ZM6.66667 12.334C6.11438 12.334 5.66667 12.7817 5.66667 13.334C5.66667 13.8863 6.11438 14.334 6.66667 14.334V12.334ZM3.5 10.0007C3.5 7.76376 4.02387 5.65209 4.95471 3.77902L3.16368 2.88895C2.09848 5.03241 1.5 7.44807 1.5 10.0007H3.5ZM4.95471 16.2223C4.02387 14.3492 3.5 12.2375 3.5 10.0007H1.5C1.5 12.5532 2.09848 14.9689 3.16368 17.1124L4.95471 16.2223ZM16.3926 10.0007C16.3926 12.2375 15.8687 14.3492 14.9379 16.2223L16.7289 17.1124C17.7941 14.9689 18.3926 12.5532 18.3926 10.0007H16.3926ZM14.9379 3.77902C15.8687 5.65209 16.3926 7.76376 16.3926 10.0007H18.3926C18.3926 7.44807 17.7941 5.0324 16.7289 2.88895L14.9379 3.77902ZM7.5 8.50065H8.53808V6.50065H7.5V8.50065ZM8.37783 8.37977L9.69912 13.0043L11.6222 12.4549L10.3009 7.83033L8.37783 8.37977ZM11.4619 14.334H12.5V12.334H11.4619V14.334ZM9.69912 13.0043C9.924 13.7914 10.6434 14.334 11.4619 14.334V12.334C11.5363 12.334 11.6017 12.3833 11.6222 12.4549L9.69912 13.0043ZM8.53808 8.50065C8.46367 8.50065 8.39827 8.45132 8.37783 8.37977L10.3009 7.83033C10.076 7.04328 9.35663 6.50065 8.53808 6.50065V8.50065ZM13.3333 6.50065H13.2666V8.50065H13.3333V6.50065ZM11.2419 7.43187L7.23961 12.1012L8.75813 13.4028L12.7604 8.73346L11.2419 7.43187ZM6.73344 12.334H6.66667V14.334H6.73344V12.334ZM7.23961 12.1012C7.11296 12.2489 6.92806 12.334 6.73344 12.334V14.334C7.51191 14.334 8.25151 13.9938 8.75813 13.4028L7.23961 12.1012ZM13.2666 6.50065C12.4881 6.50065 11.7485 6.84082 11.2419 7.43187L12.7604 8.73346C12.887 8.58569 13.0719 8.50065 13.2666 8.50065V6.50065Z" fill="#757575"/>
</svg>
