<svg width="21" height="20" viewBox="0 0 21 20" fill="none" xmlns="http://www.w3.org/2000/svg">
<g clip-path="url(#clip0_11642_253743)">
<path d="M10.5 20C16.0228 20 20.5 15.5228 20.5 10C20.5 4.47715 16.0228 0 10.5 0C4.97715 0 0.5 4.47715 0.5 10C0.5 15.5228 4.97715 20 10.5 20Z" fill="#EEEEEE"/>
<path d="M10.5 4.0625C11.3629 4.0625 12.0625 3.36294 12.0625 2.5C12.0625 1.63706 11.3629 0.9375 10.5 0.9375C9.63706 0.9375 8.9375 1.63706 8.9375 2.5C8.9375 3.36294 9.63706 4.0625 10.5 4.0625Z" fill="#55D92F"/>
<path d="M10.5 7.8125C11.3629 7.8125 12.0625 7.11294 12.0625 6.25C12.0625 5.38706 11.3629 4.6875 10.5 4.6875C9.63706 4.6875 8.9375 5.38706 8.9375 6.25C8.9375 7.11294 9.63706 7.8125 10.5 7.8125Z" fill="black"/>
<path d="M7.25195 5.9375C8.1149 5.9375 8.81445 5.23794 8.81445 4.375C8.81445 3.51206 8.1149 2.8125 7.25195 2.8125C6.38901 2.8125 5.68945 3.51206 5.68945 4.375C5.68945 5.23794 6.38901 5.9375 7.25195 5.9375Z" fill="#D03454"/>
<path d="M4.00391 7.8125C4.86685 7.8125 5.56641 7.11294 5.56641 6.25C5.56641 5.38706 4.86685 4.6875 4.00391 4.6875C3.14096 4.6875 2.44141 5.38706 2.44141 6.25C2.44141 7.11294 3.14096 7.8125 4.00391 7.8125Z" fill="black"/>
<path d="M7.25195 9.6875C8.1149 9.6875 8.81445 8.98794 8.81445 8.125C8.81445 7.26206 8.1149 6.5625 7.25195 6.5625C6.38901 6.5625 5.68945 7.26206 5.68945 8.125C5.68945 8.98794 6.38901 9.6875 7.25195 9.6875Z" fill="#9EE3EC"/>
<path d="M4.00391 11.5625C4.86685 11.5625 5.56641 10.8629 5.56641 10C5.56641 9.13706 4.86685 8.4375 4.00391 8.4375C3.14096 8.4375 2.44141 9.13706 2.44141 10C2.44141 10.8629 3.14096 11.5625 4.00391 11.5625Z" fill="#571E98"/>
<path d="M4.00391 15.3125C4.86685 15.3125 5.56641 14.6129 5.56641 13.75C5.56641 12.8871 4.86685 12.1875 4.00391 12.1875C3.14096 12.1875 2.44141 12.8871 2.44141 13.75C2.44141 14.6129 3.14096 15.3125 4.00391 15.3125Z" fill="#55D92F"/>
<path d="M7.25195 13.4375C8.1149 13.4375 8.81445 12.7379 8.81445 11.875C8.81445 11.0121 8.1149 10.3125 7.25195 10.3125C6.38901 10.3125 5.68945 11.0121 5.68945 11.875C5.68945 12.7379 6.38901 13.4375 7.25195 13.4375Z" fill="#D03454"/>
<path d="M7.25195 17.1875C8.1149 17.1875 8.81445 16.4879 8.81445 15.625C8.81445 14.7621 8.1149 14.0625 7.25195 14.0625C6.38901 14.0625 5.68945 14.7621 5.68945 15.625C5.68945 16.4879 6.38901 17.1875 7.25195 17.1875Z" fill="#571E98"/>
<path d="M10.5 19.0625C11.3629 19.0625 12.0625 18.3629 12.0625 17.5C12.0625 16.6371 11.3629 15.9375 10.5 15.9375C9.63706 15.9375 8.9375 16.6371 8.9375 17.5C8.9375 18.3629 9.63706 19.0625 10.5 19.0625Z" fill="#D03454"/>
<path d="M10.5 15.3125C11.3629 15.3125 12.0625 14.6129 12.0625 13.75C12.0625 12.8871 11.3629 12.1875 10.5 12.1875C9.63706 12.1875 8.9375 12.8871 8.9375 13.75C8.9375 14.6129 9.63706 15.3125 10.5 15.3125Z" fill="#9EE3EC"/>
<path d="M13.748 17.1875C14.611 17.1875 15.3105 16.4879 15.3105 15.625C15.3105 14.7621 14.611 14.0625 13.748 14.0625C12.8851 14.0625 12.1855 14.7621 12.1855 15.625C12.1855 16.4879 12.8851 17.1875 13.748 17.1875Z" fill="#55D92F"/>
<path d="M16.9961 15.3125C17.859 15.3125 18.5586 14.6129 18.5586 13.75C18.5586 12.8871 17.859 12.1875 16.9961 12.1875C16.1331 12.1875 15.4336 12.8871 15.4336 13.75C15.4336 14.6129 16.1331 15.3125 16.9961 15.3125Z" fill="#9EE3EC"/>
<path d="M13.748 13.4375C14.611 13.4375 15.3105 12.7379 15.3105 11.875C15.3105 11.0121 14.611 10.3125 13.748 10.3125C12.8851 10.3125 12.1855 11.0121 12.1855 11.875C12.1855 12.7379 12.8851 13.4375 13.748 13.4375Z" fill="black"/>
<path d="M16.9961 11.5625C17.859 11.5625 18.5586 10.8629 18.5586 10C18.5586 9.13706 17.859 8.4375 16.9961 8.4375C16.1331 8.4375 15.4336 9.13706 15.4336 10C15.4336 10.8629 16.1331 11.5625 16.9961 11.5625Z" fill="#D03454"/>
<path d="M16.9961 7.8125C17.859 7.8125 18.5586 7.11294 18.5586 6.25C18.5586 5.38706 17.859 4.6875 16.9961 4.6875C16.1331 4.6875 15.4336 5.38706 15.4336 6.25C15.4336 7.11294 16.1331 7.8125 16.9961 7.8125Z" fill="#571E98"/>
<path d="M13.748 9.6875C14.611 9.6875 15.3105 8.98794 15.3105 8.125C15.3105 7.26206 14.611 6.5625 13.748 6.5625C12.8851 6.5625 12.1855 7.26206 12.1855 8.125C12.1855 8.98794 12.8851 9.6875 13.748 9.6875Z" fill="#D03454"/>
<path d="M13.748 5.9375C14.611 5.9375 15.3105 5.23794 15.3105 4.375C15.3105 3.51206 14.611 2.8125 13.748 2.8125C12.8851 2.8125 12.1855 3.51206 12.1855 4.375C12.1855 5.23794 12.8851 5.9375 13.748 5.9375Z" fill="#571E98"/>
<path d="M10.5 11.5625C11.3629 11.5625 12.0625 10.8629 12.0625 10C12.0625 9.13706 11.3629 8.4375 10.5 8.4375C9.63706 8.4375 8.9375 9.13706 8.9375 10C8.9375 10.8629 9.63706 11.5625 10.5 11.5625Z" fill="#9EE3EC"/>
</g>
<defs>
<clipPath id="clip0_11642_253743">
<rect width="20" height="20" fill="white" transform="translate(0.5)"/>
</clipPath>
</defs>
</svg>
