<svg width="20" height="20" viewBox="0 0 20 20" fill="none" xmlns="http://www.w3.org/2000/svg">
<path d="M13.8036 14.7856C13.8036 15.3065 13.5966 15.8062 13.2282 16.1745C12.8599 16.5429 12.3602 16.7499 11.8393 16.7499H4.96429C4.44332 16.7499 3.9437 16.5429 3.57533 16.1745C3.20695 15.8062 3 15.3065 3 14.7856V7.91057C3 7.38961 3.20695 6.88999 3.57533 6.52161C3.9437 6.15324 4.44332 5.94629 4.96429 5.94629V6.92843C4.70381 6.92843 4.45399 7.03191 4.26981 7.2161C4.08562 7.40028 3.98214 7.65009 3.98214 7.91057V14.7856C3.98214 15.0461 4.08562 15.2959 4.26981 15.4801C4.45399 15.6642 4.70381 15.7677 4.96429 15.7677H11.8393C12.0998 15.7677 12.3496 15.6642 12.5338 15.4801C12.718 15.2959 12.8214 15.0461 12.8214 14.7856H13.8036Z" fill="#7342CC"/>
<path d="M7.91155 3.98214C7.65107 3.98214 7.40126 4.08562 7.21707 4.26981C7.03288 4.45399 6.92941 4.70381 6.92941 4.96429V11.8393C6.92941 12.0998 7.03288 12.3496 7.21707 12.5338C7.40126 12.718 7.65107 12.8214 7.91155 12.8214H14.7866C15.047 12.8214 15.2968 12.718 15.481 12.5338C15.6652 12.3496 15.7687 12.0998 15.7687 11.8393V4.96429C15.7687 4.70381 15.6652 4.45399 15.481 4.26981C15.2968 4.08562 15.047 3.98214 14.7866 3.98214H7.91155ZM7.91155 3H14.7866C15.3075 3 15.8071 3.20695 16.1755 3.57533C16.5439 3.9437 16.7508 4.44332 16.7508 4.96429V11.8393C16.7508 12.3602 16.5439 12.8599 16.1755 13.2282C15.8071 13.5966 15.3075 13.8036 14.7866 13.8036H7.91155C7.39059 13.8036 6.89097 13.5966 6.52259 13.2282C6.15422 12.8599 5.94727 12.3602 5.94727 11.8393V4.96429C5.94727 4.44332 6.15422 3.9437 6.52259 3.57533C6.89097 3.20695 7.39059 3 7.91155 3Z" fill="#7342CC"/>
</svg>
