<svg width="33" height="32" viewBox="0 0 33 32" fill="none" xmlns="http://www.w3.org/2000/svg">
<path d="M16.668 32.0001C25.5045 32.0001 32.668 24.8367 32.668 16.0001C32.668 7.16357 25.5045 0.00012207 16.668 0.00012207C7.83141 0.00012207 0.667969 7.16357 0.667969 16.0001C0.667969 24.8367 7.83141 32.0001 16.668 32.0001Z" fill="white"/>
<g clip-path="url(#clip0_10519_223477)">
<path d="M21.4893 8.8179L18.1508 13.7779C17.9199 14.1157 18.3639 14.5246 18.6835 14.2401L21.9687 11.3779C22.0575 11.3068 22.1818 11.3601 22.1818 11.4846V20.4268C22.1818 20.5512 22.022 20.6046 21.951 20.5157L12.0065 8.60457C11.6868 8.21346 11.2251 8.00012 10.7101 8.00012H10.355C9.43156 8.00012 8.66797 8.76457 8.66797 9.70679V22.2935C8.66797 23.2357 9.43156 24.0001 10.3727 24.0001C10.9588 24.0001 11.5093 23.6979 11.8289 23.1823L15.1674 18.2223C15.3983 17.8846 14.9543 17.4757 14.6347 17.7601L11.3494 20.6046C11.2606 20.6757 11.1363 20.6223 11.1363 20.4979V11.5735C11.1363 11.449 11.2962 11.3957 11.3672 11.4846L21.3117 23.3957C21.6313 23.7868 22.1108 24.0001 22.608 24.0001H22.9632C23.9044 24.0001 24.668 23.2357 24.668 22.2935V9.70679C24.668 8.76457 23.9044 8.00012 22.9632 8.00012C22.3594 8.00012 21.8089 8.30234 21.4893 8.8179Z" fill="black"/>
</g>
<defs>
<clipPath id="clip0_10519_223477">
<rect width="16" height="16" fill="white" transform="translate(8.66797 8.00012)"/>
</clipPath>
</defs>
</svg>
