<svg width="48" height="48" viewBox="0 0 48 48" fill="none" xmlns="http://www.w3.org/2000/svg">
<rect width="48" height="48" rx="24" fill="#EBE0FF"/>
<path d="M25.6673 22.3333L24.0007 23.1667M24.0007 23.1667L22.334 22.3333M24.0007 23.1667V25.25M30.6673 19.8333L29.0006 20.6667M30.6673 19.8333L29.0006 19M30.6673 19.8333V21.9167M25.6673 17.3333L24.0007 16.5L22.334 17.3333M17.334 19.8333L19.0007 19M17.334 19.8333L19.0007 20.6667M17.334 19.8333V21.9167M24.0007 31.5L22.334 30.6667M24.0007 31.5L25.6673 30.6667M24.0007 31.5V29.4167M19.0007 29L17.334 28.1667V26.0833M29.0006 29L30.6673 28.1667V26.0833" stroke="#7342CC" stroke-width="2" stroke-linecap="round" stroke-linejoin="round"/>
</svg>
