<svg width="48" height="48" viewBox="0 0 48 48" fill="none" xmlns="http://www.w3.org/2000/svg">
<rect width="48" height="48" rx="24" fill="#FFF2CC"/>
<path d="M24 17.6285C24.6108 16.9365 25.5044 16.5 26.5 16.5C28.341 16.5 29.8333 17.9924 29.8333 19.8333C29.8333 21.6743 28.341 23.1667 26.5 23.1667C25.5044 23.1667 24.6108 22.7302 24 22.0382M26.5 31.5H16.5V30.6667C16.5 27.9052 18.7386 25.6667 21.5 25.6667C24.2614 25.6667 26.5 27.9052 26.5 30.6667V31.5ZM26.5 31.5H31.5V30.6667C31.5 27.9052 29.2614 25.6667 26.5 25.6667C25.5893 25.6667 24.7354 25.9102 24 26.3356M24.8333 19.8333C24.8333 21.6743 23.3409 23.1667 21.5 23.1667C19.6591 23.1667 18.1667 21.6743 18.1667 19.8333C18.1667 17.9924 19.6591 16.5 21.5 16.5C23.3409 16.5 24.8333 17.9924 24.8333 19.8333Z" stroke="#F0A200" stroke-width="2" stroke-linecap="round" stroke-linejoin="round"/>
</svg>
