<svg width="580" height="500" viewBox="0 0 580 500" fill="none" xmlns="http://www.w3.org/2000/svg">
<g clip-path="url(#clip0_8711_255569)">
<rect x="199" y="327" width="208" height="194" fill="url(#paint0_linear_8711_255569)"/>
<path d="M208 209.5V197.488H301.747V209.5L254.495 236.655L208 209.5Z" fill="#A584E0"/>
<path d="M257.232 172.388L299.799 197.384C301.52 198.395 301.307 200.162 299.319 201.332L257.718 225.76C255.729 226.931 252.719 227.056 251.015 226.044L208.448 201.048C206.727 200.037 206.94 198.27 208.928 197.1L250.529 172.672C252.501 171.508 255.512 171.377 257.232 172.388Z" fill="url(#paint1_linear_8711_255569)"/>
<path d="M255.851 184.719L279.499 198.59C280.455 199.151 280.337 200.132 279.233 200.781L256.121 214.337C255.016 214.987 253.344 215.056 252.397 214.495L228.749 200.624C227.793 200.063 227.911 199.082 229.016 198.433L252.127 184.877C253.223 184.23 254.895 184.158 255.851 184.719Z" fill="#A584E0"/>
<path d="M254.4 197.041L258.184 199.432C258.337 199.529 258.318 199.698 258.141 199.81L254.443 202.147C254.266 202.259 253.999 202.271 253.847 202.175L250.064 199.783C249.911 199.686 249.93 199.517 250.106 199.405L253.804 197.068C253.979 196.956 254.247 196.944 254.4 197.041Z" fill="#FFD24C"/>
<path d="M228.748 200.986L230.824 202.23L252.121 189.455C253.226 188.79 254.898 188.72 255.845 189.293L277.421 202.24L279.23 201.153C280.335 200.489 280.456 199.487 279.497 198.913L255.854 184.729C254.898 184.155 253.226 184.226 252.131 184.89L229.024 198.752C227.91 199.409 227.789 200.412 228.748 200.986Z" fill="#885FD0"/>
<path d="M208 193.833V181.822H301.747V193.833L254.495 220.989L208 193.833Z" fill="#A584E0"/>
<path d="M257.232 156.596L299.799 181.592C301.52 182.603 301.307 184.37 299.319 185.54L257.718 209.968C255.729 211.138 252.719 211.263 251.015 210.252L208.448 185.256C206.727 184.245 206.94 182.478 208.928 181.308L250.529 156.88C252.501 155.715 255.512 155.584 257.232 156.596Z" fill="url(#paint2_linear_8711_255569)"/>
<path d="M255.851 168.927L279.499 182.798C280.455 183.359 280.337 184.339 279.233 184.989L256.121 198.545C255.016 199.194 253.344 199.264 252.397 198.703L228.749 184.831C227.793 184.27 227.911 183.29 229.016 182.64L252.127 169.084C253.223 168.438 254.895 168.365 255.851 168.927Z" fill="#A584E0"/>
<path d="M254.4 181.248L258.184 183.64C258.337 183.737 258.318 183.906 258.141 184.018L254.443 186.355C254.266 186.467 253.999 186.479 253.847 186.382L250.064 183.99C249.911 183.894 249.93 183.725 250.106 183.613L253.804 181.275C253.979 181.164 254.247 181.151 254.4 181.248Z" fill="#FFD24C"/>
<path d="M228.748 185.193L230.824 186.437L252.121 173.662C253.226 172.998 254.898 172.927 255.845 173.501L277.421 186.447L279.23 185.361C280.335 184.697 280.456 183.694 279.497 183.12L255.854 168.936C254.898 168.362 253.226 168.433 252.131 169.097L229.024 182.959C227.91 183.617 227.789 184.619 228.748 185.193Z" fill="#885FD0"/>
<path d="M208 155.167V143.156H301.747V155.167L254.495 182.322L208 155.167Z" fill="#A584E0"/>
<path d="M257.232 117.617L299.799 142.613C301.52 143.624 301.307 145.391 299.319 146.561L257.718 170.989C255.729 172.16 252.719 172.285 251.015 171.273L208.448 146.277C206.727 145.266 206.94 143.499 208.928 142.329L250.529 117.901C252.501 116.737 255.512 116.606 257.232 117.617Z" fill="url(#paint3_linear_8711_255569)"/>
<path d="M255.851 129.948L279.499 143.819C280.455 144.38 280.337 145.361 279.233 146.01L256.121 159.566C255.016 160.216 253.344 160.285 252.397 159.724L228.749 145.853C227.793 145.292 227.911 144.311 229.016 143.662L252.127 130.106C253.223 129.459 254.895 129.387 255.851 129.948Z" fill="#A584E0"/>
<path d="M254.4 142.27L258.184 144.661C258.337 144.758 258.318 144.927 258.141 145.039L254.443 147.376C254.266 147.488 253.999 147.5 253.847 147.403L250.064 145.012C249.911 144.915 249.93 144.746 250.106 144.634L253.804 142.297C253.979 142.185 254.247 142.173 254.4 142.27Z" fill="#FFD24C"/>
<path d="M228.748 146.215L230.824 147.459L252.121 134.683C253.226 134.019 254.898 133.948 255.845 134.522L277.421 147.469L279.23 146.382C280.335 145.718 280.456 144.716 279.497 144.142L255.854 129.958C254.898 129.384 253.226 129.455 252.131 130.119L229.024 143.981C227.91 144.638 227.789 145.641 228.748 146.215Z" fill="#885FD0"/>
<rect x="28" y="249" width="207" height="196" fill="url(#paint4_linear_8711_255569)"/>
<rect x="324" y="207" width="207" height="197" fill="url(#paint5_linear_8711_255569)"/>
<path d="M154 339L298.217 249.659C303.043 246.669 303.306 239.743 298.721 236.396L271.203 216.31C266.503 212.879 266.922 205.737 271.991 202.879L397 132.401" stroke="#B6A6E1" stroke-width="2" stroke-linecap="round" stroke-dasharray="6 6"/>
<path d="M368 267L453.851 319.763C458.695 322.739 458.975 329.677 454.386 333.034L341 416" stroke="#B6A6E1" stroke-width="2" stroke-linecap="round" stroke-dasharray="6 6"/>
<path d="M123.522 310.981L29.4783 256.051C25.6771 253.829 26.1461 249.946 30.5397 247.374L122.449 193.692C126.842 191.121 133.495 190.846 137.259 193.068L231.303 247.999C235.104 250.221 234.635 254.103 230.241 256.675L138.332 310.357C133.976 312.916 127.324 313.203 123.522 310.981Z" fill="#DECCFF"/>
<path d="M29.478 256.051L37.7346 260.87L122.448 211.395C126.842 208.823 133.494 208.549 137.258 210.771L223.083 260.907L230.278 256.7C234.672 254.128 235.153 250.246 231.339 248.023L137.295 193.093C133.494 190.871 126.842 191.146 122.485 193.717L30.5764 247.399C26.1457 249.946 25.6644 253.829 29.478 256.051Z" fill="#EBE0FF"/>
<path d="M418.163 269.151L324.119 214.22C320.318 211.998 320.787 208.116 325.18 205.544L417.089 151.862C421.483 149.29 428.135 149.016 431.899 151.238L525.943 206.168C529.745 208.39 529.276 212.273 524.882 214.845L432.973 268.526C428.616 271.086 421.964 271.373 418.163 269.151Z" fill="#DECCFF"/>
<path d="M324.119 214.22L332.375 219.039L417.089 169.564C421.483 166.993 428.135 166.718 431.899 168.94L517.723 219.077L524.919 214.869C529.312 212.298 529.794 208.415 525.98 206.193L431.936 151.263C428.135 149.04 421.483 149.315 417.126 151.887L325.217 205.569C320.786 208.116 320.305 211.998 324.119 214.22Z" fill="#EBE0FF"/>
<path d="M295.827 385.927L201.783 330.997C197.982 328.775 198.451 324.892 202.844 322.32L294.753 268.638C299.147 266.067 305.799 265.792 309.563 268.014L403.607 322.944C407.409 325.167 406.94 329.049 402.546 331.621L310.637 385.303C306.281 387.862 299.628 388.149 295.827 385.927Z" fill="#DECCFF"/>
<path d="M201.783 330.997L210.039 335.816L294.753 286.341C299.147 283.769 305.799 283.494 309.563 285.717L395.387 335.853L402.583 331.646C406.976 329.074 407.458 325.191 403.644 322.969L309.6 268.039C305.799 265.817 299.147 266.091 294.79 268.663L202.881 322.345C198.45 324.892 197.969 328.774 201.783 330.997Z" fill="#EBE0FF"/>
<path d="M130.281 136.445L64.8135 98.2104L130.281 59.9756L195.748 98.2104L130.281 136.445Z" fill="#A584E0"/>
<path d="M130.281 283.203L64.8135 244.968L130.281 206.733L195.748 244.968L130.281 283.203Z" fill="white"/>
<path d="M195.747 98.21V244.967L130.28 283.202V136.445L195.747 98.21Z" fill="url(#paint6_linear_8711_255569)"/>
<path d="M64.8135 98.2104V244.968L130.281 283.203V136.445L64.8135 98.2104Z" fill="#9F74EE"/>
<g opacity="0.51">
<path opacity="0.51" d="M69.2422 107.951V239.851L125.837 272.917V141.004L69.2422 107.951Z" fill="#9474CF"/>
</g>
<path d="M185.926 133.666V137.549L140.103 164.303V160.433L185.926 133.666Z" fill="#885FD0"/>
<path d="M185.926 150.069V153.953L140.103 180.707V176.836L185.926 150.069Z" fill="#885FD0"/>
<path d="M185.926 166.472V170.342L140.103 197.109V193.239L185.926 166.472Z" fill="#885FD0"/>
<path d="M185.926 182.875V186.745L140.103 213.512V209.629L185.926 182.875Z" fill="#885FD0"/>
<path d="M185.926 199.278V203.149L140.103 229.916V226.032L185.926 199.278Z" fill="#885FD0"/>
<path d="M185.926 215.681V219.551L140.103 246.318V242.435L185.926 215.681Z" fill="#885FD0"/>
<path opacity="0.78" d="M130.281 126.393H113.076L64.8135 98.2104L117.326 67.5342H130.281V126.393Z" fill="url(#paint7_linear_8711_255569)"/>
<path d="M130.28 123.016L82.7744 95.2752L130.28 67.5342L177.772 95.2752L130.28 123.016Z" fill="url(#paint8_linear_8711_255569)"/>
<path d="M177.773 95.2754V98.6521L130.28 126.393V123.016L177.773 95.2754Z" fill="url(#paint9_linear_8711_255569)"/>
<path d="M82.7744 95.2754V98.6521L130.279 126.393V123.016L82.7744 95.2754Z" fill="#8A64CE"/>
<path d="M111.857 95.7168L109.751 94.496L109.918 93.496L129.446 82.0151L132.143 83.3139L131.642 84.171L111.857 95.7168Z" fill="#885FD0"/>
<path d="M129.536 82.9375L131.641 84.1713L133.002 83.3791L129.536 81.353L108.402 93.704L109.75 94.4963L129.536 82.9375Z" fill="url(#paint10_linear_8711_255569)"/>
<path d="M118.237 99.4442L116.132 98.2104L116.312 97.2103L135.827 85.7295L138.536 87.0282L138.036 87.8854L118.237 99.4442Z" fill="#885FD0"/>
<path d="M135.93 86.6518L138.036 87.8856L139.384 87.0934L135.93 85.0674L114.784 97.4184L116.145 98.2106L135.93 86.6518Z" fill="url(#paint11_linear_8711_255569)"/>
<path d="M124.631 103.159L122.525 101.925L122.692 100.938L142.208 89.4443L144.917 90.7561L144.416 91.6002L124.631 103.159Z" fill="#885FD0"/>
<path d="M142.31 90.3794L144.416 91.6002L145.764 90.808L142.31 88.7949L121.164 101.146L122.525 101.925L142.31 90.3794Z" fill="url(#paint12_linear_8711_255569)"/>
<path d="M131.013 106.873L128.907 105.653L129.087 104.653L148.59 93.1587L151.312 94.4704L150.798 95.3146L131.013 106.873Z" fill="#885FD0"/>
<path d="M148.705 94.0933L150.798 95.3141L152.159 94.5348L148.705 92.5088L127.559 104.86L128.907 105.652L148.705 94.0933Z" fill="url(#paint13_linear_8711_255569)"/>
<g opacity="0.51">
<path d="M64.8135 221.772L130.281 181.797V136.445L64.8135 98.21V221.772Z" fill="#B295E4"/>
</g>
<path d="M127.688 143.043C127.643 142.133 127.387 141.246 126.941 140.454C126.495 139.663 125.872 138.988 125.121 138.485C124.857 138.289 124.546 138.17 124.221 138.138C123.895 138.106 123.568 138.163 123.272 138.303V138.303L121.423 139.394H122.566C122.548 139.584 122.548 139.775 122.566 139.965C122.611 140.875 122.867 141.762 123.313 142.554C123.759 143.346 124.382 144.02 125.133 144.524C125.308 144.629 125.493 144.716 125.685 144.783L125.159 145.783L126.969 144.718C127.223 144.526 127.422 144.271 127.548 143.977C127.674 143.683 127.723 143.361 127.688 143.043V143.043Z" fill="url(#paint14_linear_8711_255569)"/>
<path d="M125.825 144.147C125.825 145.823 124.657 146.511 123.257 145.667C122.506 145.163 121.883 144.489 121.437 143.697C120.991 142.905 120.735 142.018 120.689 141.108C120.689 139.433 121.858 138.744 123.257 139.589C124.008 140.092 124.632 140.767 125.078 141.559C125.524 142.35 125.78 143.237 125.825 144.147Z" fill="url(#paint15_linear_8711_255569)"/>
<path d="M124.682 143.497C124.682 144.458 124.014 144.796 123.18 144.367C122.747 144.083 122.385 143.7 122.124 143.249C121.864 142.798 121.711 142.291 121.678 141.77C121.678 140.809 122.345 140.471 123.18 140.9C123.613 141.184 123.975 141.567 124.236 142.018C124.496 142.469 124.649 142.976 124.682 143.497V143.497Z" fill="#7647CC"/>
<path d="M72.7861 108.938C72.7409 108.028 72.4849 107.141 72.0389 106.349C71.5929 105.558 70.9693 104.883 70.2182 104.38C69.9544 104.184 69.6436 104.065 69.3184 104.033C68.9931 104.001 68.6654 104.058 68.3694 104.198V104.198L66.5205 105.289H67.6632C67.6454 105.479 67.6454 105.67 67.6632 105.86C67.7084 106.77 67.9643 107.657 68.4103 108.449C68.8563 109.241 69.48 109.915 70.231 110.419C70.4056 110.524 70.5907 110.611 70.7831 110.678L70.2567 111.678L72.0671 110.613C72.3204 110.421 72.5199 110.166 72.646 109.872C72.772 109.578 72.8203 109.256 72.7861 108.938V108.938Z" fill="url(#paint16_linear_8711_255569)"/>
<path d="M70.9248 110.016C70.9248 111.691 69.7564 112.38 68.3569 111.535C67.6059 111.032 66.9822 110.357 66.5362 109.565C66.0901 108.774 65.8342 107.887 65.7891 106.977C65.7891 105.301 66.9574 104.613 68.3569 105.457C69.1079 105.961 69.7316 106.635 70.1776 107.427C70.6236 108.219 70.8796 109.106 70.9248 110.016Z" fill="url(#paint17_linear_8711_255569)"/>
<path d="M69.8208 109.38C69.8208 110.341 69.1532 110.678 68.3186 110.25C67.8853 109.965 67.5239 109.582 67.263 109.131C67.0022 108.68 66.8492 108.174 66.8164 107.652C66.8164 106.691 67.4841 106.354 68.3186 106.782C68.7519 107.067 69.1133 107.45 69.3742 107.901C69.635 108.352 69.788 108.858 69.8208 109.38V109.38Z" fill="#7647CC"/>
<path d="M127.688 274.476C127.643 273.566 127.387 272.679 126.941 271.887C126.495 271.095 125.872 270.42 125.121 269.917C124.857 269.722 124.546 269.602 124.221 269.57C123.895 269.538 123.568 269.595 123.272 269.735V269.735L121.423 270.826H122.566C122.548 271.016 122.548 271.208 122.566 271.398C122.611 272.308 122.867 273.195 123.313 273.986C123.759 274.778 124.382 275.453 125.133 275.956C125.308 276.062 125.493 276.149 125.685 276.216L125.159 277.216L126.969 276.151C127.223 275.959 127.422 275.704 127.548 275.41C127.674 275.116 127.723 274.794 127.688 274.476V274.476Z" fill="url(#paint18_linear_8711_255569)"/>
<path d="M125.825 275.579C125.825 277.254 124.657 277.943 123.257 277.098C122.506 276.595 121.883 275.92 121.437 275.128C120.991 274.337 120.735 273.45 120.689 272.54C120.689 270.864 121.858 270.176 123.257 271.02C124.008 271.524 124.632 272.198 125.078 272.99C125.524 273.782 125.78 274.669 125.825 275.579Z" fill="url(#paint19_linear_8711_255569)"/>
<path d="M124.682 274.93C124.682 275.891 124.014 276.229 123.18 275.8C122.747 275.516 122.385 275.133 122.124 274.682C121.864 274.231 121.711 273.724 121.678 273.203C121.678 272.242 122.345 271.904 123.18 272.332C123.613 272.617 123.975 273 124.236 273.451C124.496 273.902 124.649 274.408 124.682 274.93V274.93Z" fill="#7647CC"/>
<path d="M72.7861 240.358C72.7409 239.447 72.4849 238.561 72.0389 237.769C71.5929 236.977 70.9693 236.302 70.2182 235.799C69.9544 235.604 69.6436 235.484 69.3184 235.452C68.9931 235.42 68.6654 235.477 68.3694 235.617V235.617L66.5205 236.708H67.6632C67.6454 236.898 67.6454 237.089 67.6632 237.28C67.7084 238.19 67.9643 239.076 68.4103 239.868C68.8563 240.66 69.48 241.335 70.231 241.838C70.4056 241.944 70.5907 242.031 70.7831 242.098L70.2567 243.098L72.0671 242.033C72.3204 241.841 72.5199 241.585 72.646 241.292C72.772 240.998 72.8203 240.676 72.7861 240.358V240.358Z" fill="url(#paint20_linear_8711_255569)"/>
<path d="M70.9248 241.409C70.9248 243.084 69.7564 243.773 68.3569 242.928C67.6059 242.425 66.9822 241.75 66.5362 240.959C66.0901 240.167 65.8342 239.28 65.7891 238.37C65.7891 236.695 66.9574 236.006 68.3569 236.85C69.1079 237.354 69.7316 238.028 70.1776 238.82C70.6236 239.612 70.8796 240.499 70.9248 241.409Z" fill="url(#paint21_linear_8711_255569)"/>
<path d="M69.8208 240.812C69.8208 241.773 69.1532 242.11 68.3186 241.682C67.8853 241.397 67.5239 241.014 67.263 240.563C67.0022 240.112 66.8492 239.606 66.8164 239.084C66.8164 238.123 67.4841 237.786 68.3186 238.214C68.7519 238.499 69.1133 238.882 69.3742 239.333C69.635 239.784 69.788 240.29 69.8208 240.812V240.812Z" fill="#7647CC"/>
<path d="M87.4362 149.68L73.0049 141.251V138.043L87.4362 146.472V149.68Z" fill="#FFD24D"/>
<path d="M94.8325 153.992L89.6455 150.966V147.758L94.8325 150.797V153.992Z" fill="#FFD24D"/>
<path d="M100.571 157.342L97.04 155.29V152.082L100.571 154.134V157.342Z" fill="#FFD24D"/>
<path d="M80.8753 153.16L73.0049 148.576V145.368L80.8753 149.952V153.16Z" fill="#FFD24D"/>
<path d="M92.7126 160.082L83.0703 154.446V151.238L92.7126 156.874V160.082Z" fill="#FFD24D"/>
<path d="M98.4388 163.42L94.9209 161.368V158.16L98.4388 160.225V163.42Z" fill="#FFD24D"/>
<path d="M103.909 166.615L100.378 164.55V161.342L103.909 163.407V166.615Z" fill="#FFD24D"/>
<path d="M78.6927 159.212L73.0049 155.887V152.692L78.6927 156.004V159.212Z" fill="#FFD24D"/>
<path d="M82.8391 161.641L80.9004 160.498V157.303L82.8391 158.433V161.641Z" fill="#FFD24D"/>
<path d="M88.5786 164.992L85.0479 162.927V159.719L88.5786 161.784V164.992Z" fill="#FFD24D"/>
<path d="M94.0098 175.472L73.0049 163.212V160.004L94.0098 172.277V175.472Z" fill="#FFD24D"/>
<path d="M101.405 179.797L96.2051 176.758V173.563L101.405 176.589V179.797Z" fill="#FFD24D"/>
<path d="M78.6927 173.862L73.0049 170.537V167.329L78.6927 170.654V173.862Z" fill="#FFD24D"/>
<path d="M92.0448 181.655L80.9004 175.148V171.94L92.0448 178.447V181.655Z" fill="#FFD24D"/>
<path d="M97.7837 185.005L94.2529 182.94V179.732L97.7837 181.797V185.005Z" fill="#FFD24D"/>
<path d="M84.6501 184.655L73.0049 177.862V174.654L84.6501 181.447V184.655Z" fill="#FFD24D"/>
<path d="M95.2681 190.863L86.8584 185.94V182.732L95.2681 187.655V190.863Z" fill="#FFD24D"/>
<path d="M103.163 195.473L97.4756 192.148V188.94L103.163 192.265V195.473Z" fill="#FFD24D"/>
<path d="M76.9465 187.473L73.0049 185.174V181.979L76.9465 184.265V187.473Z" fill="#FFD24D"/>
<path d="M84.3415 191.798L79.1416 188.759V185.551L84.3415 188.59V191.798Z" fill="#FFD24D"/>
<path d="M94.921 197.967L86.5498 193.083V189.875L94.921 194.772V197.967Z" fill="#FFD24D"/>
<path d="M85.0481 199.538L73.0049 192.499V189.291L85.0481 196.33V199.538Z" fill="#FFD24D"/>
<path d="M98.5425 207.409L87.2568 200.824V197.616L98.5425 204.201V207.409Z" fill="#FFD24D"/>
<path d="M104.267 210.759L100.736 208.694V205.499L104.267 207.551V210.759Z" fill="#FFD24D"/>
<path d="M109.777 213.98L106.246 211.915V208.707L109.777 210.772V213.98Z" fill="#FFD24D"/>
<path d="M80.2205 204.032L73.0049 199.824V196.616L80.2205 200.837V204.032Z" fill="#FFD24D"/>
<path d="M110.393 163.082L120.394 168.927V165.719L110.393 159.875V163.082Z" fill="#FFD24D"/>
<path d="M112.537 171.654L120.395 176.252V173.044L112.537 168.446V171.654Z" fill="#FFD24D"/>
<path d="M114.719 180.251L120.394 183.563V180.368L114.719 177.043V180.251Z" fill="#FFD24D"/>
<path d="M112.126 186.057L120.394 190.888V187.68L112.126 182.849V186.057Z" fill="#FFD24D"/>
<path d="M114.719 194.889L120.394 198.213V195.005L114.719 191.681V194.889Z" fill="#FFD24D"/>
<path d="M113.191 201.317L120.394 205.538V202.33L113.191 198.122V201.317Z" fill="#FFD24D"/>
<path d="M116.466 210.564L120.395 212.863V209.655L116.466 207.357V210.564Z" fill="#FFD24D"/>
<path d="M112.78 215.733L120.394 220.175V216.98L112.78 212.525V215.733Z" fill="#FFD24D"/>
<path d="M113.191 223.292L120.394 227.5V224.292L113.191 220.084V223.292Z" fill="#FFD24D"/>
<path d="M85.4973 207.122L82.4287 205.33V202.122L85.4973 203.914V207.122Z" fill="#FFD24D"/>
<path d="M94.6116 212.434L87.7041 208.408V205.2L94.6116 209.226V212.434Z" fill="#FFD24D"/>
<path d="M100.313 237.071L88.668 230.266V227.058L100.313 233.863V237.071Z" fill="#FFD24D"/>
<path d="M108.3 241.734L103.717 239.045V235.837L108.3 238.526V241.734Z" fill="#FFD24D"/>
<path d="M424.923 94.6152L359.456 56.3804L424.923 18.1455L490.39 56.3804L424.923 94.6152Z" fill="#A584E0"/>
<path d="M424.923 241.373L359.456 203.138L424.923 164.903L490.39 203.138L424.923 241.373Z" fill="white"/>
<path d="M490.39 56.3799V203.137L424.923 241.372V94.6147L490.39 56.3799Z" fill="url(#paint22_linear_8711_255569)"/>
<path d="M359.456 56.3799V203.137L424.923 241.372V94.6147L359.456 56.3799Z" fill="#9F74EE"/>
<g opacity="0.51">
<path opacity="0.51" d="M363.884 66.1211V198.021L420.479 231.087V99.174L363.884 66.1211Z" fill="#9474CF"/>
</g>
<path d="M480.568 91.8359V95.7192L434.745 122.473V118.603L480.568 91.8359Z" fill="#885FD0"/>
<path d="M480.568 108.239V112.122L434.745 138.876V135.006L480.568 108.239Z" fill="#885FD0"/>
<path d="M480.568 124.642V128.512L434.745 155.279V151.409L480.568 124.642Z" fill="#885FD0"/>
<path d="M480.568 141.045V144.915L434.745 171.682V167.799L480.568 141.045Z" fill="#885FD0"/>
<path d="M480.568 157.448V161.318L434.745 188.085V184.202L480.568 157.448Z" fill="#885FD0"/>
<path d="M480.568 173.851V177.721L434.745 204.488V200.605L480.568 173.851Z" fill="#885FD0"/>
<path opacity="0.78" d="M424.923 84.5629H407.719L359.456 56.3803L411.968 25.7041H424.923V84.5629Z" fill="url(#paint23_linear_8711_255569)"/>
<path d="M424.922 81.1862L377.417 53.4452L424.922 25.7041L472.414 53.4452L424.922 81.1862Z" fill="url(#paint24_linear_8711_255569)"/>
<path d="M472.415 53.4453V56.822L424.923 84.5631V81.1864L472.415 53.4453Z" fill="url(#paint25_linear_8711_255569)"/>
<path d="M377.417 53.4453V56.822L424.922 84.5631V81.1864L377.417 53.4453Z" fill="#8A64CE"/>
<path d="M406.499 53.8867L404.394 52.6659L404.56 51.6659L424.089 40.1851L426.785 41.4838L426.284 42.341L406.499 53.8867Z" fill="#885FD0"/>
<path d="M424.178 41.1074L426.284 42.3412L427.645 41.549L424.178 39.5229L403.045 51.874L404.393 52.6662L424.178 41.1074Z" fill="url(#paint26_linear_8711_255569)"/>
<path d="M412.879 57.6141L410.773 56.3803L410.953 55.3803L430.469 43.8994L433.178 45.1982L432.677 46.0553L412.879 57.6141Z" fill="#885FD0"/>
<path d="M430.572 44.8218L432.678 46.0556L434.026 45.2633L430.572 43.2373L409.426 55.5883L410.787 56.3805L430.572 44.8218Z" fill="url(#paint27_linear_8711_255569)"/>
<path d="M419.274 61.3289L417.168 60.0951L417.335 59.1081L436.85 47.6143L439.56 48.926L439.059 49.7702L419.274 61.3289Z" fill="#885FD0"/>
<path d="M436.953 48.5493L439.058 49.7701L440.407 48.9779L436.953 46.9648L415.807 59.3158L417.168 60.0951L436.953 48.5493Z" fill="url(#paint28_linear_8711_255569)"/>
<path d="M425.655 65.0428L423.55 63.822L423.73 62.822L443.232 51.3281L445.954 52.6399L445.441 53.484L425.655 65.0428Z" fill="#885FD0"/>
<path d="M443.346 52.2632L445.439 53.484L446.8 52.7047L443.346 50.6787L422.2 63.0297L423.548 63.8219L443.346 52.2632Z" fill="url(#paint29_linear_8711_255569)"/>
<g opacity="0.51">
<path d="M359.456 179.942L424.923 139.967V94.6147L359.456 56.3799V179.942Z" fill="#B295E4"/>
</g>
<path d="M422.33 101.213C422.285 100.303 422.029 99.4161 421.583 98.6243C421.137 97.8325 420.513 97.1578 419.762 96.6544C419.498 96.4593 419.188 96.3395 418.862 96.3075C418.537 96.2755 418.209 96.3325 417.913 96.4726V96.4726L416.064 97.5636H417.207C417.189 97.7536 417.189 97.945 417.207 98.135C417.252 99.0452 417.508 99.9319 417.954 100.724C418.4 101.515 419.024 102.19 419.775 102.694C419.95 102.799 420.135 102.886 420.327 102.953L419.801 103.953L421.611 102.888C421.864 102.696 422.064 102.441 422.19 102.147C422.316 101.853 422.364 101.531 422.33 101.213V101.213Z" fill="url(#paint30_linear_8711_255569)"/>
<path d="M420.467 102.317C420.467 103.992 419.298 104.681 417.899 103.837C417.148 103.333 416.524 102.659 416.078 101.867C415.632 101.075 415.376 100.188 415.331 99.2781C415.331 97.6027 416.499 96.9144 417.899 97.7585C418.65 98.2619 419.274 98.9366 419.72 99.7284C420.166 100.52 420.422 101.407 420.467 102.317Z" fill="url(#paint31_linear_8711_255569)"/>
<path d="M419.325 101.667C419.325 102.628 418.657 102.966 417.822 102.537C417.389 102.253 417.028 101.87 416.767 101.419C416.506 100.968 416.353 100.461 416.32 99.9398C416.32 98.9787 416.988 98.6411 417.822 99.0696C418.256 99.3541 418.617 99.7372 418.878 100.188C419.139 100.639 419.292 101.146 419.325 101.667V101.667Z" fill="#7647CC"/>
<path d="M367.429 67.108C367.383 66.1979 367.128 65.3112 366.681 64.5193C366.235 63.7275 365.612 63.0528 364.861 62.5495C364.597 62.3543 364.286 62.2345 363.961 62.2025C363.636 62.1705 363.308 62.2276 363.012 62.3676V62.3676L361.163 63.4586H362.306C362.288 63.6486 362.288 63.84 362.306 64.03C362.351 64.9402 362.607 65.8269 363.053 66.6187C363.499 67.4105 364.123 68.0853 364.874 68.5886C365.048 68.6943 365.233 68.7814 365.426 68.8483L364.899 69.8484L366.71 68.7834C366.963 68.5913 367.162 68.3358 367.289 68.0421C367.415 67.7483 367.463 67.4264 367.429 67.108V67.108Z" fill="url(#paint32_linear_8711_255569)"/>
<path d="M365.567 68.1858C365.567 69.8611 364.399 70.5495 362.999 69.7053C362.248 69.202 361.625 68.5272 361.179 67.7354C360.733 66.9436 360.477 66.0569 360.432 65.1467C360.432 63.4714 361.6 62.783 362.999 63.6272C363.751 64.1305 364.374 64.8053 364.82 65.5971C365.266 66.3889 365.522 67.2756 365.567 68.1858Z" fill="url(#paint33_linear_8711_255569)"/>
<path d="M364.463 67.5496C364.463 68.5106 363.796 68.8483 362.961 68.4197C362.528 68.1352 362.166 67.7522 361.906 67.3012C361.645 66.8501 361.492 66.3437 361.459 65.8222C361.459 64.8612 362.127 64.5235 362.961 64.9521C363.394 65.2366 363.756 65.6196 364.017 66.0706C364.278 66.5216 364.431 67.0281 364.463 67.5496V67.5496Z" fill="#7647CC"/>
<path d="M422.33 232.646C422.285 231.735 422.029 230.849 421.583 230.057C421.137 229.265 420.513 228.59 419.762 228.087C419.498 227.892 419.188 227.772 418.862 227.74C418.537 227.708 418.209 227.765 417.913 227.905V227.905L416.064 228.996H417.207C417.189 229.186 417.189 229.378 417.207 229.568C417.252 230.478 417.508 231.364 417.954 232.156C418.4 232.948 419.024 233.623 419.775 234.126C419.95 234.232 420.135 234.319 420.327 234.386L419.801 235.386L421.611 234.321C421.864 234.129 422.064 233.873 422.19 233.58C422.316 233.286 422.364 232.964 422.33 232.646V232.646Z" fill="url(#paint34_linear_8711_255569)"/>
<path d="M420.467 233.749C420.467 235.424 419.298 236.112 417.899 235.268C417.148 234.765 416.524 234.09 416.078 233.298C415.632 232.507 415.376 231.62 415.331 230.71C415.331 229.034 416.499 228.346 417.899 229.19C418.65 229.694 419.274 230.368 419.72 231.16C420.166 231.952 420.422 232.839 420.467 233.749Z" fill="url(#paint35_linear_8711_255569)"/>
<path d="M419.325 233.1C419.325 234.061 418.657 234.399 417.822 233.97C417.389 233.686 417.028 233.303 416.767 232.852C416.506 232.401 416.353 231.894 416.32 231.373C416.32 230.412 416.988 230.074 417.822 230.502C418.256 230.787 418.617 231.17 418.878 231.621C419.139 232.072 419.292 232.579 419.325 233.1V233.1Z" fill="#7647CC"/>
<path d="M367.429 198.527C367.383 197.617 367.128 196.731 366.681 195.939C366.235 195.147 365.612 194.472 364.861 193.969C364.597 193.774 364.286 193.654 363.961 193.622C363.636 193.59 363.308 193.647 363.012 193.787V193.787L361.163 194.878H362.306C362.288 195.068 362.288 195.259 362.306 195.449C362.351 196.36 362.607 197.246 363.053 198.038C363.499 198.83 364.123 199.505 364.874 200.008C365.048 200.114 365.233 200.201 365.426 200.268L364.899 201.268L366.71 200.203C366.963 200.011 367.162 199.755 367.289 199.461C367.415 199.168 367.463 198.846 367.429 198.527V198.527Z" fill="url(#paint36_linear_8711_255569)"/>
<path d="M365.567 199.579C365.567 201.254 364.399 201.943 362.999 201.098C362.248 200.595 361.625 199.92 361.179 199.128C360.733 198.337 360.477 197.45 360.432 196.54C360.432 194.864 361.6 194.176 362.999 195.02C363.751 195.524 364.374 196.198 364.82 196.99C365.266 197.782 365.522 198.669 365.567 199.579Z" fill="url(#paint37_linear_8711_255569)"/>
<path d="M364.463 198.982C364.463 199.943 363.796 200.28 362.961 199.852C362.528 199.567 362.166 199.184 361.906 198.733C361.645 198.282 361.492 197.776 361.459 197.254C361.459 196.293 362.127 195.956 362.961 196.384C363.394 196.669 363.756 197.052 364.017 197.503C364.278 197.954 364.431 198.46 364.463 198.982V198.982Z" fill="#3F21D3"/>
<path d="M382.078 107.85L367.646 99.4208V96.2129L382.078 104.642V107.85Z" fill="#FFD24D"/>
<path d="M389.474 112.162L384.287 109.136V105.928L389.474 108.967V112.162Z" fill="#FFD24D"/>
<path d="M395.212 115.512L391.682 113.46V110.252L395.212 112.304V115.512Z" fill="#FFD24D"/>
<path d="M375.517 111.33L367.646 106.745V103.538L375.517 108.122V111.33Z" fill="#FFD24D"/>
<path d="M387.355 118.253L377.713 112.616V109.408L387.355 115.045V118.253Z" fill="#FFD24D"/>
<path d="M393.081 121.59L389.563 119.538V116.33L393.081 118.395V121.59Z" fill="#FFD24D"/>
<path d="M398.55 124.785L395.02 122.72V119.512L398.55 121.577V124.785Z" fill="#FFD24D"/>
<path d="M373.334 117.382L367.646 114.057V110.862L373.334 114.174V117.382Z" fill="#FFD24D"/>
<path d="M377.482 119.81L375.543 118.668V115.473L377.482 116.603V119.81Z" fill="#FFD24D"/>
<path d="M383.22 123.162L379.689 121.097V117.889L383.22 119.954V123.162Z" fill="#FFD24D"/>
<path d="M388.651 133.642L367.646 121.382V118.174L388.651 130.447V133.642Z" fill="#FFD24D"/>
<path d="M396.047 137.967L390.847 134.928V131.733L396.047 134.759V137.967Z" fill="#FFD24D"/>
<path d="M373.334 132.032L367.646 128.707V125.499L373.334 128.824V132.032Z" fill="#FFD24D"/>
<path d="M386.687 139.824L375.543 133.318V130.11L386.687 136.616V139.824Z" fill="#FFD24D"/>
<path d="M392.426 143.175L388.896 141.11V137.902L392.426 139.967V143.175Z" fill="#FFD24D"/>
<path d="M379.292 142.825L367.646 136.032V132.824L379.292 139.617V142.825Z" fill="#FFD24D"/>
<path d="M389.911 149.032L381.501 144.11V140.902L389.911 145.825V149.032Z" fill="#FFD24D"/>
<path d="M397.806 153.643L392.118 150.318V147.11L397.806 150.435V153.643Z" fill="#FFD24D"/>
<path d="M371.588 145.643L367.646 143.344V140.149L371.588 142.435V145.643Z" fill="#FFD24D"/>
<path d="M378.983 149.968L373.783 146.929V143.721L378.983 146.76V149.968Z" fill="#FFD24D"/>
<path d="M389.564 156.137L381.192 151.253V148.045L389.564 152.942V156.137Z" fill="#FFD24D"/>
<path d="M379.69 157.708L367.646 150.669V147.461L379.69 154.5V157.708Z" fill="#FFD24D"/>
<path d="M393.185 165.579L381.899 158.994V155.786L393.185 162.371V165.579Z" fill="#FFD24D"/>
<path d="M398.91 168.929L395.379 166.864V163.669L398.91 165.721V168.929Z" fill="#FFD24D"/>
<path d="M404.418 172.15L400.888 170.085V166.877L404.418 168.942V172.15Z" fill="#FFD24D"/>
<path d="M374.862 162.201L367.646 157.994V154.786L374.862 159.007V162.201Z" fill="#FFD24D"/>
<path d="M405.035 121.252L415.037 127.097V123.889L405.035 118.044V121.252Z" fill="#FFD24D"/>
<path d="M407.18 129.824L415.037 134.422V131.214L407.18 126.616V129.824Z" fill="#FFD24D"/>
<path d="M409.361 138.421L415.036 141.733V138.538L409.361 135.213V138.421Z" fill="#FFD24D"/>
<path d="M406.769 144.227L415.037 149.059V145.851L406.769 141.02V144.227Z" fill="#FFD24D"/>
<path d="M409.361 153.058L415.036 156.383V153.175L409.361 149.851V153.058Z" fill="#FFD24D"/>
<path d="M407.834 159.487L415.037 163.708V160.5L407.834 156.292V159.487Z" fill="#FFD24D"/>
<path d="M411.108 168.734L415.037 171.033V167.825L411.108 165.526V168.734Z" fill="#FFD24D"/>
<path d="M407.423 173.903L415.037 178.345V175.15L407.423 170.695V173.903Z" fill="#FFD24D"/>
<path d="M407.834 181.462L415.037 185.67V182.462L407.834 178.254V181.462Z" fill="#FFD24D"/>
<path d="M380.14 165.292L377.071 163.5V160.292L380.14 162.084V165.292Z" fill="#FFD24D"/>
<path d="M389.254 170.604L382.347 166.578V163.37L389.254 167.396V170.604Z" fill="#FFD24D"/>
<path d="M394.956 195.241L383.311 188.436V185.228L394.956 192.033V195.241Z" fill="#FFD24D"/>
<path d="M402.942 199.904L398.358 197.215V194.007L402.942 196.696V199.904Z" fill="#FFD24D"/>
<path d="M302.586 211.392L237.119 173.157L302.586 134.922L368.053 173.157L302.586 211.392Z" fill="#A584E0"/>
<path d="M302.586 358.149L237.119 319.914L302.586 281.679L368.053 319.914L302.586 358.149Z" fill="white"/>
<path d="M368.053 173.156V319.914L302.586 358.149V211.391L368.053 173.156Z" fill="url(#paint38_linear_8711_255569)"/>
<path d="M237.119 173.156V319.914L302.586 358.149V211.391L237.119 173.156Z" fill="#9F74EE"/>
<g opacity="0.51">
<path opacity="0.51" d="M241.547 182.897V314.797L298.142 347.863V215.95L241.547 182.897Z" fill="#9474CF"/>
</g>
<path d="M358.231 208.612V212.496L312.408 239.25V235.379L358.231 208.612Z" fill="#885FD0"/>
<path d="M358.231 225.016V228.899L312.408 255.653V251.783L358.231 225.016Z" fill="#885FD0"/>
<path d="M358.231 241.418V245.289L312.408 272.056V268.185L358.231 241.418Z" fill="#885FD0"/>
<path d="M358.231 257.821V261.692L312.408 288.459V284.575L358.231 257.821Z" fill="#885FD0"/>
<path d="M358.231 274.225V278.095L312.408 304.862V300.979L358.231 274.225Z" fill="#885FD0"/>
<path d="M358.231 290.627V294.498L312.408 321.265V317.381L358.231 290.627Z" fill="#885FD0"/>
<path opacity="0.78" d="M302.586 201.339H285.382L237.119 173.157L289.632 142.48H302.586V201.339Z" fill="url(#paint39_linear_8711_255569)"/>
<path d="M302.585 197.963L255.08 170.222L302.585 142.48L350.077 170.222L302.585 197.963Z" fill="url(#paint40_linear_8711_255569)"/>
<path d="M350.078 170.222V173.598L302.586 201.339V197.963L350.078 170.222Z" fill="url(#paint41_linear_8711_255569)"/>
<path d="M255.08 170.222V173.598L302.585 201.339V197.963L255.08 170.222Z" fill="#8A64CE"/>
<path d="M284.162 170.663L282.057 169.442L282.224 168.442L301.752 156.961L304.448 158.26L303.948 159.117L284.162 170.663Z" fill="#885FD0"/>
<path d="M301.841 157.884L303.947 159.118L305.308 158.325L301.841 156.299L280.708 168.65L282.056 169.443L301.841 157.884Z" fill="url(#paint42_linear_8711_255569)"/>
<path d="M290.542 174.39L288.437 173.157L288.616 172.157L308.132 160.676L310.841 161.975L310.34 162.832L290.542 174.39Z" fill="#885FD0"/>
<path d="M308.235 161.598L310.341 162.832L311.689 162.04L308.235 160.014L287.089 172.365L288.45 173.157L308.235 161.598Z" fill="url(#paint43_linear_8711_255569)"/>
<path d="M296.936 178.105L294.83 176.871L294.997 175.884L314.513 164.391L317.222 165.702L316.721 166.547L296.936 178.105Z" fill="#885FD0"/>
<path d="M314.616 165.326L316.722 166.546L318.07 165.754L314.616 163.741L293.47 176.092L294.831 176.871L314.616 165.326Z" fill="url(#paint44_linear_8711_255569)"/>
<path d="M303.319 181.819L301.213 180.598L301.393 179.598L320.895 168.104L323.617 169.416L323.104 170.26L303.319 181.819Z" fill="#885FD0"/>
<path d="M321.009 169.04L323.102 170.26L324.463 169.481L321.009 167.455L299.863 179.806L301.211 180.598L321.009 169.04Z" fill="url(#paint45_linear_8711_255569)"/>
<g opacity="0.51">
<path d="M237.119 296.718L302.586 256.743V211.391L237.119 173.156V296.718Z" fill="#B295E4"/>
</g>
<path d="M299.993 217.989C299.948 217.079 299.692 216.192 299.246 215.401C298.8 214.609 298.176 213.934 297.425 213.431C297.161 213.236 296.851 213.116 296.525 213.084C296.2 213.052 295.872 213.109 295.576 213.249V213.249L293.728 214.34H294.87C294.852 214.53 294.852 214.721 294.87 214.911C294.915 215.822 295.171 216.708 295.617 217.5C296.063 218.292 296.687 218.967 297.438 219.47C297.613 219.576 297.798 219.663 297.99 219.73L297.464 220.73L299.274 219.665C299.527 219.473 299.727 219.217 299.853 218.923C299.979 218.63 300.027 218.308 299.993 217.989V217.989Z" fill="url(#paint46_linear_8711_255569)"/>
<path d="M298.13 219.093C298.13 220.769 296.961 221.457 295.562 220.613C294.811 220.11 294.187 219.435 293.741 218.643C293.295 217.851 293.039 216.965 292.994 216.054C292.994 214.379 294.163 213.691 295.562 214.535C296.313 215.038 296.937 215.713 297.383 216.505C297.829 217.297 298.085 218.183 298.13 219.093Z" fill="url(#paint47_linear_8711_255569)"/>
<path d="M296.987 218.444C296.987 219.405 296.319 219.742 295.485 219.314C295.051 219.029 294.69 218.646 294.429 218.195C294.168 217.744 294.015 217.238 293.982 216.716C293.982 215.755 294.65 215.418 295.485 215.846C295.918 216.131 296.279 216.514 296.54 216.965C296.801 217.416 296.954 217.922 296.987 218.444V218.444Z" fill="#7647CC"/>
<path d="M245.092 183.884C245.047 182.974 244.791 182.088 244.345 181.296C243.899 180.504 243.275 179.829 242.524 179.326C242.26 179.131 241.949 179.011 241.624 178.979C241.299 178.947 240.971 179.004 240.675 179.144V179.144L238.826 180.235H239.969C239.951 180.425 239.951 180.616 239.969 180.806C240.014 181.717 240.27 182.603 240.716 183.395C241.162 184.187 241.786 184.862 242.537 185.365C242.711 185.471 242.896 185.558 243.089 185.625L242.562 186.625L244.373 185.56C244.626 185.368 244.826 185.112 244.952 184.818C245.078 184.525 245.126 184.203 245.092 183.884V183.884Z" fill="url(#paint48_linear_8711_255569)"/>
<path d="M243.23 184.962C243.23 186.638 242.062 187.326 240.663 186.482C239.912 185.978 239.288 185.304 238.842 184.512C238.396 183.72 238.14 182.833 238.095 181.923C238.095 180.248 239.263 179.559 240.663 180.404C241.414 180.907 242.037 181.582 242.483 182.373C242.929 183.165 243.185 184.052 243.23 184.962Z" fill="url(#paint49_linear_8711_255569)"/>
<path d="M242.126 184.326C242.126 185.287 241.459 185.625 240.624 185.196C240.191 184.912 239.83 184.529 239.569 184.078C239.308 183.627 239.155 183.12 239.122 182.599C239.122 181.638 239.79 181.3 240.624 181.728C241.058 182.013 241.419 182.396 241.68 182.847C241.941 183.298 242.094 183.804 242.126 184.326V184.326Z" fill="#7647CC"/>
<path d="M299.993 349.422C299.948 348.512 299.692 347.625 299.246 346.833C298.8 346.041 298.176 345.367 297.425 344.863C297.161 344.668 296.851 344.548 296.525 344.516C296.2 344.484 295.872 344.542 295.576 344.682V344.682L293.728 345.773H294.87C294.852 345.963 294.852 346.154 294.87 346.344C294.915 347.254 295.171 348.141 295.617 348.933C296.063 349.724 296.687 350.399 297.438 350.903C297.613 351.008 297.798 351.095 297.99 351.162L297.464 352.162L299.274 351.097C299.527 350.905 299.727 350.65 299.853 350.356C299.979 350.062 300.027 349.74 299.993 349.422V349.422Z" fill="url(#paint50_linear_8711_255569)"/>
<path d="M298.13 350.525C298.13 352.2 296.961 352.889 295.562 352.045C294.811 351.541 294.187 350.867 293.741 350.075C293.295 349.283 293.039 348.396 292.994 347.486C292.994 345.811 294.163 345.122 295.562 345.967C296.313 346.47 296.937 347.145 297.383 347.936C297.829 348.728 298.085 349.615 298.13 350.525Z" fill="url(#paint51_linear_8711_255569)"/>
<path d="M296.987 349.876C296.987 350.837 296.319 351.175 295.485 350.746C295.051 350.462 294.69 350.079 294.429 349.628C294.168 349.177 294.015 348.67 293.982 348.149C293.982 347.188 294.65 346.85 295.485 347.279C295.918 347.563 296.279 347.946 296.54 348.397C296.801 348.848 296.954 349.355 296.987 349.876V349.876Z" fill="#7342CC"/>
<path d="M245.092 315.304C245.047 314.394 244.791 313.507 244.345 312.715C243.899 311.923 243.275 311.249 242.524 310.745C242.26 310.55 241.949 310.43 241.624 310.398C241.299 310.366 240.971 310.423 240.675 310.563V310.563L238.826 311.654H239.969C239.951 311.844 239.951 312.036 239.969 312.226C240.014 313.136 240.27 314.023 240.716 314.815C241.162 315.606 241.786 316.281 242.537 316.784C242.711 316.89 242.896 316.977 243.089 317.044L242.562 318.044L244.373 316.979C244.626 316.787 244.826 316.532 244.952 316.238C245.078 315.944 245.126 315.622 245.092 315.304V315.304Z" fill="url(#paint52_linear_8711_255569)"/>
<path d="M243.23 316.355C243.23 318.031 242.062 318.719 240.663 317.875C239.912 317.371 239.288 316.697 238.842 315.905C238.396 315.113 238.14 314.226 238.095 313.316C238.095 311.641 239.263 310.952 240.663 311.797C241.414 312.3 242.037 312.975 242.483 313.767C242.929 314.558 243.185 315.445 243.23 316.355Z" fill="url(#paint53_linear_8711_255569)"/>
<path d="M242.126 315.758C242.126 316.719 241.459 317.057 240.624 316.628C240.191 316.344 239.83 315.961 239.569 315.51C239.308 315.059 239.155 314.552 239.122 314.031C239.122 313.07 239.79 312.732 240.624 313.161C241.058 313.445 241.419 313.828 241.68 314.279C241.941 314.73 242.094 315.237 242.126 315.758V315.758Z" fill="#7647CC"/>
<path d="M259.742 224.626L245.311 216.197V212.989L259.742 221.418V224.626Z" fill="#FFD24D"/>
<path d="M267.137 228.938L261.95 225.912V222.704L267.137 225.743V228.938Z" fill="#FFD24D"/>
<path d="M272.875 232.288L269.345 230.236V227.028L272.875 229.08V232.288Z" fill="#FFD24D"/>
<path d="M253.181 228.106L245.311 223.522V220.314L253.181 224.899V228.106Z" fill="#FFD24D"/>
<path d="M265.018 235.029L255.376 229.392V226.184L265.018 231.821V235.029Z" fill="#FFD24D"/>
<path d="M270.745 238.366L267.227 236.314V233.106L270.745 235.171V238.366Z" fill="#FFD24D"/>
<path d="M276.213 241.561L272.683 239.496V236.289L276.213 238.354V241.561Z" fill="#FFD24D"/>
<path d="M250.998 234.158L245.311 230.834V227.639L250.998 230.95V234.158Z" fill="#FFD24D"/>
<path d="M255.144 236.587L253.205 235.444V232.25L255.144 233.379V236.587Z" fill="#FFD24D"/>
<path d="M260.883 239.938L257.353 237.873V234.665L260.883 236.73V239.938Z" fill="#FFD24D"/>
<path d="M266.315 250.419L245.311 238.159V234.951L266.315 247.224V250.419Z" fill="#FFD24D"/>
<path d="M273.71 254.743L268.51 251.704V248.509L273.71 251.535V254.743Z" fill="#FFD24D"/>
<path d="M250.998 248.808L245.311 245.483V242.275L250.998 245.6V248.808Z" fill="#FFD24D"/>
<path d="M264.35 256.601L253.205 250.094V246.886L264.35 253.393V256.601Z" fill="#FFD24D"/>
<path d="M270.089 259.952L266.559 257.887V254.679L270.089 256.744V259.952Z" fill="#FFD24D"/>
<path d="M256.956 259.601L245.311 252.808V249.601L256.956 256.393V259.601Z" fill="#FFD24D"/>
<path d="M267.574 265.809L259.164 260.887V257.679L267.574 262.601V265.809Z" fill="#FFD24D"/>
<path d="M275.469 270.419L269.781 267.095V263.887L275.469 267.211V270.419Z" fill="#FFD24D"/>
<path d="M249.252 262.419L245.311 260.12V256.925L249.252 259.211V262.419Z" fill="#FFD24D"/>
<path d="M256.647 266.744L251.447 263.705V260.497L256.647 263.536V266.744Z" fill="#FFD24D"/>
<path d="M267.227 272.912L258.855 268.029V264.821L267.227 269.718V272.912Z" fill="#FFD24D"/>
<path d="M257.354 274.484L245.311 267.445V264.237L257.354 271.276V274.484Z" fill="#FFD24D"/>
<path d="M270.848 282.355L259.562 275.77V272.562L270.848 279.147V282.355Z" fill="#FFD24D"/>
<path d="M276.573 285.705L273.042 283.64V280.445L276.573 282.497V285.705Z" fill="#FFD24D"/>
<path d="M282.082 288.926L278.551 286.861V283.653L282.082 285.718V288.926Z" fill="#FFD24D"/>
<path d="M252.526 278.978L245.311 274.77V271.562L252.526 275.783V278.978Z" fill="#FFD24D"/>
<path d="M282.698 238.029L292.7 243.873V240.665L282.698 234.821V238.029Z" fill="#FFD24D"/>
<path d="M284.843 246.6L292.7 251.198V247.99L284.843 243.393V246.6Z" fill="#FFD24D"/>
<path d="M287.024 255.198L292.699 258.509V255.315L287.024 251.99V255.198Z" fill="#FFD24D"/>
<path d="M284.432 261.004L292.7 265.835V262.627L284.432 257.796V261.004Z" fill="#FFD24D"/>
<path d="M287.024 269.835L292.699 273.16V269.952L287.024 266.627V269.835Z" fill="#FFD24D"/>
<path d="M285.497 276.263L292.7 280.484V277.276L285.497 273.068V276.263Z" fill="#FFD24D"/>
<path d="M288.771 285.511L292.699 287.81V284.602L288.771 282.303V285.511Z" fill="#FFD24D"/>
<path d="M285.086 290.68L292.7 295.121V291.926L285.086 287.472V290.68Z" fill="#FFD24D"/>
<path d="M285.497 298.238L292.7 302.446V299.238L285.497 295.03V298.238Z" fill="#FFD24D"/>
<path d="M257.802 282.069L254.733 280.276V277.068L257.802 278.861V282.069Z" fill="#FFD24D"/>
<path d="M266.917 287.38L260.01 283.354V280.146L266.917 284.173V287.38Z" fill="#FFD24D"/>
<path d="M272.619 312.017L260.974 305.212V302.004L272.619 308.809V312.017Z" fill="#FFD24D"/>
<path d="M280.605 316.68L276.021 313.992V310.784L280.605 313.473V316.68Z" fill="#FFD24D"/>
<path d="M432 333.5V321.489H525.747V333.5L478.495 360.655L432 333.5Z" fill="#A584E0"/>
<path d="M480.463 297.389L523.03 322.385C524.75 323.396 524.538 325.163 522.549 326.333L480.949 350.761C478.96 351.931 475.949 352.056 474.245 351.045L431.678 326.049C429.958 325.038 430.17 323.271 432.159 322.101L473.759 297.673C475.731 296.508 478.742 296.377 480.463 297.389Z" fill="url(#paint54_linear_8711_255569)"/>
<path d="M479.082 309.719L502.73 323.591C503.686 324.152 503.568 325.132 502.463 325.782L479.352 339.338C478.247 339.987 476.574 340.057 475.628 339.495L451.979 325.624C451.023 325.063 451.141 324.083 452.246 323.433L475.358 309.877C476.453 309.231 478.126 309.158 479.082 309.719Z" fill="#A584E0"/>
<path d="M477.631 322.041L481.414 324.433C481.567 324.529 481.548 324.698 481.372 324.81L477.674 327.148C477.497 327.26 477.229 327.272 477.078 327.175L473.294 324.783C473.141 324.687 473.16 324.517 473.337 324.406L477.035 322.068C477.21 321.957 477.478 321.944 477.631 322.041Z" fill="#FFD24C"/>
<path d="M451.978 325.986L454.054 327.23L475.352 314.455C476.456 313.791 478.129 313.72 479.075 314.294L500.652 327.24L502.461 326.154C503.565 325.49 503.686 324.487 502.728 323.913L479.084 309.729C478.129 309.155 476.456 309.226 475.361 309.89L452.254 323.752C451.141 324.41 451.02 325.412 451.978 325.986Z" fill="#885FD0"/>
<path d="M432 317.833V305.822H525.747V317.833L478.495 344.989L432 317.833Z" fill="#A584E0"/>
<path d="M480.463 281.596L523.03 306.592C524.75 307.603 524.538 309.37 522.549 310.54L480.949 334.968C478.96 336.138 475.949 336.263 474.245 335.252L431.678 310.256C429.958 309.245 430.17 307.478 432.159 306.308L473.759 281.88C475.731 280.715 478.742 280.584 480.463 281.596Z" fill="url(#paint55_linear_8711_255569)"/>
<path d="M479.082 293.926L502.73 307.798C503.686 308.359 503.568 309.339 502.463 309.989L479.352 323.545C478.247 324.194 476.574 324.264 475.628 323.702L451.979 309.831C451.023 309.27 451.141 308.29 452.246 307.64L475.358 294.084C476.453 293.438 478.126 293.365 479.082 293.926Z" fill="#A584E0"/>
<path d="M477.631 306.248L481.414 308.64C481.567 308.736 481.548 308.906 481.372 309.017L477.674 311.355C477.497 311.467 477.229 311.479 477.078 311.382L473.294 308.99C473.141 308.894 473.16 308.725 473.337 308.613L477.035 306.275C477.21 306.164 477.478 306.151 477.631 306.248Z" fill="#FFD24C"/>
<path d="M451.978 310.193L454.054 311.437L475.352 298.662C476.456 297.998 478.129 297.927 479.075 298.501L500.652 311.447L502.461 310.361C503.565 309.697 503.686 308.694 502.728 308.12L479.084 293.936C478.129 293.362 476.456 293.433 475.361 294.097L452.254 307.959C451.141 308.617 451.02 309.619 451.978 310.193Z" fill="#885FD0"/>
<path d="M432 302.167V290.155H525.747V302.167L478.495 329.322L432 302.167Z" fill="#A584E0"/>
<path d="M480.463 265.802L523.03 290.798C524.75 291.809 524.538 293.576 522.549 294.746L480.949 319.174C478.96 320.345 475.949 320.47 474.245 319.459L431.678 294.462C429.958 293.451 430.17 291.685 432.159 290.514L473.759 266.086C475.731 264.922 478.742 264.791 480.463 265.802Z" fill="url(#paint56_linear_8711_255569)"/>
<path d="M479.082 278.133L502.73 292.004C503.686 292.566 503.568 293.546 502.463 294.195L479.352 307.751C478.247 308.401 476.574 308.47 475.628 307.909L451.979 294.038C451.023 293.477 451.141 292.496 452.246 291.847L475.358 278.291C476.453 277.645 478.126 277.572 479.082 278.133Z" fill="#A584E0"/>
<path d="M477.631 290.455L481.414 292.846C481.567 292.943 481.548 293.112 481.372 293.224L477.674 295.561C477.497 295.673 477.229 295.685 477.078 295.589L473.294 293.197C473.141 293.1 473.16 292.931 473.337 292.819L477.035 290.482C477.21 290.371 477.478 290.358 477.631 290.455Z" fill="#FFD24C"/>
<path d="M451.978 294.4L454.054 295.644L475.352 282.869C476.456 282.205 478.129 282.134 479.075 282.707L500.652 295.654L502.461 294.567C503.565 293.903 503.686 292.901 502.728 292.327L479.084 278.143C478.129 277.569 476.456 277.64 475.361 278.304L452.254 292.166C451.141 292.823 451.02 293.826 451.978 294.4Z" fill="#885FD0"/>
</g>
<defs>
<linearGradient id="paint0_linear_8711_255569" x1="303" y1="327" x2="303" y2="521" gradientUnits="userSpaceOnUse">
<stop stop-color="#DECCFF"/>
<stop offset="1" stop-color="#F6F7FC" stop-opacity="0"/>
</linearGradient>
<linearGradient id="paint1_linear_8711_255569" x1="254.133" y1="183.998" x2="254.133" y2="225.561" gradientUnits="userSpaceOnUse">
<stop stop-color="#C0BFF6"/>
<stop offset="0.33" stop-color="#BEBAF2"/>
<stop offset="0.71" stop-color="#B8ACE6"/>
<stop offset="1" stop-color="#B19CD9"/>
</linearGradient>
<linearGradient id="paint2_linear_8711_255569" x1="254.133" y1="168.206" x2="254.133" y2="209.769" gradientUnits="userSpaceOnUse">
<stop stop-color="#C0BFF6"/>
<stop offset="0.33" stop-color="#BEBAF2"/>
<stop offset="0.71" stop-color="#B8ACE6"/>
<stop offset="1" stop-color="#B19CD9"/>
</linearGradient>
<linearGradient id="paint3_linear_8711_255569" x1="254.133" y1="129.227" x2="254.133" y2="170.79" gradientUnits="userSpaceOnUse">
<stop stop-color="#C0BFF6"/>
<stop offset="0.33" stop-color="#BEBAF2"/>
<stop offset="0.71" stop-color="#B8ACE6"/>
<stop offset="1" stop-color="#B19CD9"/>
</linearGradient>
<linearGradient id="paint4_linear_8711_255569" x1="131.5" y1="249" x2="131.5" y2="445" gradientUnits="userSpaceOnUse">
<stop stop-color="#DECCFF"/>
<stop offset="1" stop-color="#F6F7FC" stop-opacity="0"/>
</linearGradient>
<linearGradient id="paint5_linear_8711_255569" x1="427.5" y1="207" x2="427.5" y2="404" gradientUnits="userSpaceOnUse">
<stop stop-color="#DECCFF"/>
<stop offset="1" stop-color="#F6F7FC" stop-opacity="0"/>
</linearGradient>
<linearGradient id="paint6_linear_8711_255569" x1="163.007" y1="241.876" x2="163.007" y2="102.132" gradientUnits="userSpaceOnUse">
<stop stop-color="#C0BFF6"/>
<stop offset="0.33" stop-color="#BEBAF2"/>
<stop offset="0.71" stop-color="#B8ACE6"/>
<stop offset="1" stop-color="#B19CD9"/>
</linearGradient>
<linearGradient id="paint7_linear_8711_255569" x1="64.8135" y1="96.9636" x2="130.281" y2="96.9636" gradientUnits="userSpaceOnUse">
<stop stop-color="#B19CD9"/>
<stop offset="1" stop-color="#754AC5"/>
</linearGradient>
<linearGradient id="paint8_linear_8711_255569" x1="82.7744" y1="95.2752" x2="177.772" y2="95.2752" gradientUnits="userSpaceOnUse">
<stop stop-color="#C0BFF6"/>
<stop offset="0.33" stop-color="#BEBAF2"/>
<stop offset="0.71" stop-color="#B8ACE6"/>
<stop offset="1" stop-color="#B19CD9"/>
</linearGradient>
<linearGradient id="paint9_linear_8711_255569" x1="160.157" y1="121.666" x2="148.414" y2="101.379" gradientUnits="userSpaceOnUse">
<stop stop-color="#C0BFF6"/>
<stop offset="0.33" stop-color="#BEBAF2"/>
<stop offset="0.71" stop-color="#B8ACE6"/>
<stop offset="1" stop-color="#B19CD9"/>
</linearGradient>
<linearGradient id="paint10_linear_8711_255569" x1="108.402" y1="87.9246" x2="133.002" y2="87.9246" gradientUnits="userSpaceOnUse">
<stop stop-color="#6E3FC3"/>
<stop offset="0.22" stop-color="#7244C5"/>
<stop offset="0.48" stop-color="#7D52CB"/>
<stop offset="0.76" stop-color="#906AD5"/>
<stop offset="1" stop-color="#A584E0"/>
</linearGradient>
<linearGradient id="paint11_linear_8711_255569" x1="114.784" y1="91.639" x2="139.384" y2="91.639" gradientUnits="userSpaceOnUse">
<stop stop-color="#6E3FC3"/>
<stop offset="0.22" stop-color="#7244C5"/>
<stop offset="0.48" stop-color="#7D52CB"/>
<stop offset="0.76" stop-color="#906AD5"/>
<stop offset="1" stop-color="#A584E0"/>
</linearGradient>
<linearGradient id="paint12_linear_8711_255569" x1="121.164" y1="95.3665" x2="145.764" y2="95.3665" gradientUnits="userSpaceOnUse">
<stop stop-color="#6E3FC3"/>
<stop offset="0.22" stop-color="#7244C5"/>
<stop offset="0.48" stop-color="#7D52CB"/>
<stop offset="0.76" stop-color="#906AD5"/>
<stop offset="1" stop-color="#A584E0"/>
</linearGradient>
<linearGradient id="paint13_linear_8711_255569" x1="127.559" y1="99.0804" x2="152.159" y2="99.0804" gradientUnits="userSpaceOnUse">
<stop stop-color="#6E3FC3"/>
<stop offset="0.22" stop-color="#7244C5"/>
<stop offset="0.48" stop-color="#7D52CB"/>
<stop offset="0.76" stop-color="#906AD5"/>
<stop offset="1" stop-color="#A584E0"/>
</linearGradient>
<linearGradient id="paint14_linear_8711_255569" x1="121.384" y1="141.978" x2="127.688" y2="141.978" gradientUnits="userSpaceOnUse">
<stop stop-color="#C0BFF6"/>
<stop offset="0.33" stop-color="#BEBAF2"/>
<stop offset="0.71" stop-color="#B8ACE6"/>
<stop offset="1" stop-color="#B19CD9"/>
</linearGradient>
<linearGradient id="paint15_linear_8711_255569" x1="120.625" y1="142.628" x2="125.825" y2="142.628" gradientUnits="userSpaceOnUse">
<stop stop-color="#6E3FC3"/>
<stop offset="0.22" stop-color="#7244C5"/>
<stop offset="0.48" stop-color="#7D52CB"/>
<stop offset="0.76" stop-color="#906AD5"/>
<stop offset="1" stop-color="#A584E0"/>
</linearGradient>
<linearGradient id="paint16_linear_8711_255569" x1="66.482" y1="107.847" x2="72.7861" y2="107.847" gradientUnits="userSpaceOnUse">
<stop stop-color="#C0BFF6"/>
<stop offset="0.33" stop-color="#BEBAF2"/>
<stop offset="0.71" stop-color="#B8ACE6"/>
<stop offset="1" stop-color="#B19CD9"/>
</linearGradient>
<linearGradient id="paint17_linear_8711_255569" x1="65.712" y1="108.496" x2="70.9248" y2="108.496" gradientUnits="userSpaceOnUse">
<stop stop-color="#6E3FC3"/>
<stop offset="0.22" stop-color="#7244C5"/>
<stop offset="0.48" stop-color="#7D52CB"/>
<stop offset="0.76" stop-color="#906AD5"/>
<stop offset="1" stop-color="#A584E0"/>
</linearGradient>
<linearGradient id="paint18_linear_8711_255569" x1="121.384" y1="273.411" x2="127.688" y2="273.411" gradientUnits="userSpaceOnUse">
<stop stop-color="#C0BFF6"/>
<stop offset="0.33" stop-color="#BEBAF2"/>
<stop offset="0.71" stop-color="#B8ACE6"/>
<stop offset="1" stop-color="#B19CD9"/>
</linearGradient>
<linearGradient id="paint19_linear_8711_255569" x1="120.625" y1="274.059" x2="125.825" y2="274.059" gradientUnits="userSpaceOnUse">
<stop stop-color="#6E3FC3"/>
<stop offset="0.22" stop-color="#7244C5"/>
<stop offset="0.48" stop-color="#7D52CB"/>
<stop offset="0.76" stop-color="#906AD5"/>
<stop offset="1" stop-color="#A584E0"/>
</linearGradient>
<linearGradient id="paint20_linear_8711_255569" x1="66.482" y1="239.28" x2="72.7861" y2="239.28" gradientUnits="userSpaceOnUse">
<stop stop-color="#C0BFF6"/>
<stop offset="0.33" stop-color="#BEBAF2"/>
<stop offset="0.71" stop-color="#B8ACE6"/>
<stop offset="1" stop-color="#B19CD9"/>
</linearGradient>
<linearGradient id="paint21_linear_8711_255569" x1="65.712" y1="239.928" x2="70.9248" y2="239.928" gradientUnits="userSpaceOnUse">
<stop stop-color="#6E3FC3"/>
<stop offset="0.22" stop-color="#7244C5"/>
<stop offset="0.48" stop-color="#7D52CB"/>
<stop offset="0.76" stop-color="#906AD5"/>
<stop offset="1" stop-color="#A584E0"/>
</linearGradient>
<linearGradient id="paint22_linear_8711_255569" x1="457.65" y1="200.046" x2="457.65" y2="60.3021" gradientUnits="userSpaceOnUse">
<stop stop-color="#C0BFF6"/>
<stop offset="0.33" stop-color="#BEBAF2"/>
<stop offset="0.71" stop-color="#B8ACE6"/>
<stop offset="1" stop-color="#B19CD9"/>
</linearGradient>
<linearGradient id="paint23_linear_8711_255569" x1="359.456" y1="55.1335" x2="424.923" y2="55.1335" gradientUnits="userSpaceOnUse">
<stop stop-color="#B19CD9"/>
<stop offset="1" stop-color="#754AC5"/>
</linearGradient>
<linearGradient id="paint24_linear_8711_255569" x1="377.417" y1="53.4452" x2="472.414" y2="53.4452" gradientUnits="userSpaceOnUse">
<stop stop-color="#C0BFF6"/>
<stop offset="0.33" stop-color="#BEBAF2"/>
<stop offset="0.71" stop-color="#B8ACE6"/>
<stop offset="1" stop-color="#B19CD9"/>
</linearGradient>
<linearGradient id="paint25_linear_8711_255569" x1="454.8" y1="79.8357" x2="443.057" y2="59.5487" gradientUnits="userSpaceOnUse">
<stop stop-color="#C0BFF6"/>
<stop offset="0.33" stop-color="#BEBAF2"/>
<stop offset="0.71" stop-color="#B8ACE6"/>
<stop offset="1" stop-color="#B19CD9"/>
</linearGradient>
<linearGradient id="paint26_linear_8711_255569" x1="403.045" y1="46.0946" x2="427.645" y2="46.0946" gradientUnits="userSpaceOnUse">
<stop stop-color="#6E3FC3"/>
<stop offset="0.22" stop-color="#7244C5"/>
<stop offset="0.48" stop-color="#7D52CB"/>
<stop offset="0.76" stop-color="#906AD5"/>
<stop offset="1" stop-color="#A584E0"/>
</linearGradient>
<linearGradient id="paint27_linear_8711_255569" x1="409.426" y1="49.8089" x2="434.026" y2="49.8089" gradientUnits="userSpaceOnUse">
<stop stop-color="#6E3FC3"/>
<stop offset="0.22" stop-color="#7244C5"/>
<stop offset="0.48" stop-color="#7D52CB"/>
<stop offset="0.76" stop-color="#906AD5"/>
<stop offset="1" stop-color="#A584E0"/>
</linearGradient>
<linearGradient id="paint28_linear_8711_255569" x1="415.807" y1="53.5365" x2="440.407" y2="53.5365" gradientUnits="userSpaceOnUse">
<stop stop-color="#6E3FC3"/>
<stop offset="0.22" stop-color="#7244C5"/>
<stop offset="0.48" stop-color="#7D52CB"/>
<stop offset="0.76" stop-color="#906AD5"/>
<stop offset="1" stop-color="#A584E0"/>
</linearGradient>
<linearGradient id="paint29_linear_8711_255569" x1="422.2" y1="57.2503" x2="446.8" y2="57.2503" gradientUnits="userSpaceOnUse">
<stop stop-color="#6E3FC3"/>
<stop offset="0.22" stop-color="#7244C5"/>
<stop offset="0.48" stop-color="#7D52CB"/>
<stop offset="0.76" stop-color="#906AD5"/>
<stop offset="1" stop-color="#A584E0"/>
</linearGradient>
<linearGradient id="paint30_linear_8711_255569" x1="416.026" y1="100.148" x2="422.33" y2="100.148" gradientUnits="userSpaceOnUse">
<stop stop-color="#C0BFF6"/>
<stop offset="0.33" stop-color="#BEBAF2"/>
<stop offset="0.71" stop-color="#B8ACE6"/>
<stop offset="1" stop-color="#B19CD9"/>
</linearGradient>
<linearGradient id="paint31_linear_8711_255569" x1="415.267" y1="100.798" x2="420.467" y2="100.798" gradientUnits="userSpaceOnUse">
<stop stop-color="#6E3FC3"/>
<stop offset="0.22" stop-color="#7244C5"/>
<stop offset="0.48" stop-color="#7D52CB"/>
<stop offset="0.76" stop-color="#906AD5"/>
<stop offset="1" stop-color="#A584E0"/>
</linearGradient>
<linearGradient id="paint32_linear_8711_255569" x1="361.125" y1="66.0171" x2="367.429" y2="66.0171" gradientUnits="userSpaceOnUse">
<stop stop-color="#C0BFF6"/>
<stop offset="0.33" stop-color="#BEBAF2"/>
<stop offset="0.71" stop-color="#B8ACE6"/>
<stop offset="1" stop-color="#B19CD9"/>
</linearGradient>
<linearGradient id="paint33_linear_8711_255569" x1="360.355" y1="66.6662" x2="365.567" y2="66.6662" gradientUnits="userSpaceOnUse">
<stop stop-color="#6E3FC3"/>
<stop offset="0.22" stop-color="#7244C5"/>
<stop offset="0.48" stop-color="#7D52CB"/>
<stop offset="0.76" stop-color="#906AD5"/>
<stop offset="1" stop-color="#A584E0"/>
</linearGradient>
<linearGradient id="paint34_linear_8711_255569" x1="416.026" y1="231.581" x2="422.33" y2="231.581" gradientUnits="userSpaceOnUse">
<stop stop-color="#C0BFF6"/>
<stop offset="0.33" stop-color="#BEBAF2"/>
<stop offset="0.71" stop-color="#B8ACE6"/>
<stop offset="1" stop-color="#B19CD9"/>
</linearGradient>
<linearGradient id="paint35_linear_8711_255569" x1="415.267" y1="232.229" x2="420.467" y2="232.229" gradientUnits="userSpaceOnUse">
<stop stop-color="#6E3FC3"/>
<stop offset="0.22" stop-color="#7244C5"/>
<stop offset="0.48" stop-color="#7D52CB"/>
<stop offset="0.76" stop-color="#906AD5"/>
<stop offset="1" stop-color="#A584E0"/>
</linearGradient>
<linearGradient id="paint36_linear_8711_255569" x1="361.125" y1="197.45" x2="367.429" y2="197.45" gradientUnits="userSpaceOnUse">
<stop stop-color="#C0BFF6"/>
<stop offset="0.33" stop-color="#BEBAF2"/>
<stop offset="0.71" stop-color="#B8ACE6"/>
<stop offset="1" stop-color="#B19CD9"/>
</linearGradient>
<linearGradient id="paint37_linear_8711_255569" x1="360.355" y1="198.098" x2="365.567" y2="198.098" gradientUnits="userSpaceOnUse">
<stop stop-color="#6E3FC3"/>
<stop offset="0.22" stop-color="#7244C5"/>
<stop offset="0.48" stop-color="#7D52CB"/>
<stop offset="0.76" stop-color="#906AD5"/>
<stop offset="1" stop-color="#A584E0"/>
</linearGradient>
<linearGradient id="paint38_linear_8711_255569" x1="335.313" y1="316.823" x2="335.313" y2="177.078" gradientUnits="userSpaceOnUse">
<stop stop-color="#C0BFF6"/>
<stop offset="0.33" stop-color="#BEBAF2"/>
<stop offset="0.71" stop-color="#B8ACE6"/>
<stop offset="1" stop-color="#B19CD9"/>
</linearGradient>
<linearGradient id="paint39_linear_8711_255569" x1="237.119" y1="171.91" x2="302.586" y2="171.91" gradientUnits="userSpaceOnUse">
<stop stop-color="#B19CD9"/>
<stop offset="1" stop-color="#754AC5"/>
</linearGradient>
<linearGradient id="paint40_linear_8711_255569" x1="255.08" y1="170.222" x2="350.077" y2="170.222" gradientUnits="userSpaceOnUse">
<stop stop-color="#C0BFF6"/>
<stop offset="0.33" stop-color="#BEBAF2"/>
<stop offset="0.71" stop-color="#B8ACE6"/>
<stop offset="1" stop-color="#B19CD9"/>
</linearGradient>
<linearGradient id="paint41_linear_8711_255569" x1="332.463" y1="196.612" x2="320.72" y2="176.325" gradientUnits="userSpaceOnUse">
<stop stop-color="#C0BFF6"/>
<stop offset="0.33" stop-color="#BEBAF2"/>
<stop offset="0.71" stop-color="#B8ACE6"/>
<stop offset="1" stop-color="#B19CD9"/>
</linearGradient>
<linearGradient id="paint42_linear_8711_255569" x1="280.708" y1="162.871" x2="305.308" y2="162.871" gradientUnits="userSpaceOnUse">
<stop stop-color="#6E3FC3"/>
<stop offset="0.22" stop-color="#7244C5"/>
<stop offset="0.48" stop-color="#7D52CB"/>
<stop offset="0.76" stop-color="#906AD5"/>
<stop offset="1" stop-color="#A584E0"/>
</linearGradient>
<linearGradient id="paint43_linear_8711_255569" x1="287.089" y1="166.585" x2="311.689" y2="166.585" gradientUnits="userSpaceOnUse">
<stop stop-color="#6E3FC3"/>
<stop offset="0.22" stop-color="#7244C5"/>
<stop offset="0.48" stop-color="#7D52CB"/>
<stop offset="0.76" stop-color="#906AD5"/>
<stop offset="1" stop-color="#A584E0"/>
</linearGradient>
<linearGradient id="paint44_linear_8711_255569" x1="293.47" y1="170.313" x2="318.07" y2="170.313" gradientUnits="userSpaceOnUse">
<stop stop-color="#6E3FC3"/>
<stop offset="0.22" stop-color="#7244C5"/>
<stop offset="0.48" stop-color="#7D52CB"/>
<stop offset="0.76" stop-color="#906AD5"/>
<stop offset="1" stop-color="#A584E0"/>
</linearGradient>
<linearGradient id="paint45_linear_8711_255569" x1="299.863" y1="174.027" x2="324.463" y2="174.027" gradientUnits="userSpaceOnUse">
<stop stop-color="#6E3FC3"/>
<stop offset="0.22" stop-color="#7244C5"/>
<stop offset="0.48" stop-color="#7D52CB"/>
<stop offset="0.76" stop-color="#906AD5"/>
<stop offset="1" stop-color="#A584E0"/>
</linearGradient>
<linearGradient id="paint46_linear_8711_255569" x1="293.689" y1="216.924" x2="299.993" y2="216.924" gradientUnits="userSpaceOnUse">
<stop stop-color="#C0BFF6"/>
<stop offset="0.33" stop-color="#BEBAF2"/>
<stop offset="0.71" stop-color="#B8ACE6"/>
<stop offset="1" stop-color="#B19CD9"/>
</linearGradient>
<linearGradient id="paint47_linear_8711_255569" x1="292.93" y1="217.574" x2="298.13" y2="217.574" gradientUnits="userSpaceOnUse">
<stop stop-color="#6E3FC3"/>
<stop offset="0.22" stop-color="#7244C5"/>
<stop offset="0.48" stop-color="#7D52CB"/>
<stop offset="0.76" stop-color="#906AD5"/>
<stop offset="1" stop-color="#A584E0"/>
</linearGradient>
<linearGradient id="paint48_linear_8711_255569" x1="238.788" y1="182.793" x2="245.092" y2="182.793" gradientUnits="userSpaceOnUse">
<stop stop-color="#C0BFF6"/>
<stop offset="0.33" stop-color="#BEBAF2"/>
<stop offset="0.71" stop-color="#B8ACE6"/>
<stop offset="1" stop-color="#B19CD9"/>
</linearGradient>
<linearGradient id="paint49_linear_8711_255569" x1="238.018" y1="183.443" x2="243.23" y2="183.443" gradientUnits="userSpaceOnUse">
<stop stop-color="#6E3FC3"/>
<stop offset="0.22" stop-color="#7244C5"/>
<stop offset="0.48" stop-color="#7D52CB"/>
<stop offset="0.76" stop-color="#906AD5"/>
<stop offset="1" stop-color="#A584E0"/>
</linearGradient>
<linearGradient id="paint50_linear_8711_255569" x1="293.689" y1="348.357" x2="299.993" y2="348.357" gradientUnits="userSpaceOnUse">
<stop stop-color="#C0BFF6"/>
<stop offset="0.33" stop-color="#BEBAF2"/>
<stop offset="0.71" stop-color="#B8ACE6"/>
<stop offset="1" stop-color="#B19CD9"/>
</linearGradient>
<linearGradient id="paint51_linear_8711_255569" x1="292.93" y1="349.006" x2="298.13" y2="349.006" gradientUnits="userSpaceOnUse">
<stop stop-color="#6E3FC3"/>
<stop offset="0.22" stop-color="#7244C5"/>
<stop offset="0.48" stop-color="#7D52CB"/>
<stop offset="0.76" stop-color="#906AD5"/>
<stop offset="1" stop-color="#A584E0"/>
</linearGradient>
<linearGradient id="paint52_linear_8711_255569" x1="238.788" y1="314.226" x2="245.092" y2="314.226" gradientUnits="userSpaceOnUse">
<stop stop-color="#C0BFF6"/>
<stop offset="0.33" stop-color="#BEBAF2"/>
<stop offset="0.71" stop-color="#B8ACE6"/>
<stop offset="1" stop-color="#B19CD9"/>
</linearGradient>
<linearGradient id="paint53_linear_8711_255569" x1="238.018" y1="314.875" x2="243.23" y2="314.875" gradientUnits="userSpaceOnUse">
<stop stop-color="#6E3FC3"/>
<stop offset="0.22" stop-color="#7244C5"/>
<stop offset="0.48" stop-color="#7D52CB"/>
<stop offset="0.76" stop-color="#906AD5"/>
<stop offset="1" stop-color="#A584E0"/>
</linearGradient>
<linearGradient id="paint54_linear_8711_255569" x1="477.363" y1="308.998" x2="477.363" y2="350.561" gradientUnits="userSpaceOnUse">
<stop stop-color="#C0BFF6"/>
<stop offset="0.33" stop-color="#BEBAF2"/>
<stop offset="0.71" stop-color="#B8ACE6"/>
<stop offset="1" stop-color="#B19CD9"/>
</linearGradient>
<linearGradient id="paint55_linear_8711_255569" x1="477.363" y1="293.206" x2="477.363" y2="334.769" gradientUnits="userSpaceOnUse">
<stop stop-color="#C0BFF6"/>
<stop offset="0.33" stop-color="#BEBAF2"/>
<stop offset="0.71" stop-color="#B8ACE6"/>
<stop offset="1" stop-color="#B19CD9"/>
</linearGradient>
<linearGradient id="paint56_linear_8711_255569" x1="477.363" y1="277.412" x2="477.363" y2="318.975" gradientUnits="userSpaceOnUse">
<stop stop-color="#C0BFF6"/>
<stop offset="0.33" stop-color="#BEBAF2"/>
<stop offset="0.71" stop-color="#B8ACE6"/>
<stop offset="1" stop-color="#B19CD9"/>
</linearGradient>
<clipPath id="clip0_8711_255569">
<rect width="580" height="500" fill="white"/>
</clipPath>
</defs>
</svg>
